<svg width="543" height="355" viewBox="0 0 543 355" fill="none" xmlns="http://www.w3.org/2000/svg">
<path d="M420.216 147.821C421.675 150.685 423.11 153.372 424.58 156.236C440.111 154.779 470.653 149.805 470.653 149.805C477.354 144.593 485.71 142.181 493.95 142.521C505.199 142.985 516.449 143.45 527.686 143.915C528.207 146.125 527.397 148.637 525.812 150.145C520.881 154.855 518.949 162.102 515.315 168.055C512.387 172.853 509.401 177.827 508.498 183.504C484.344 190.211 460.353 197.106 436.535 205.132C423.017 209.691 407.509 207.569 396.537 197.86C387.881 190.186 382.545 178.995 378.39 167.741L420.205 147.846L420.216 147.821Z" fill="#8F5D63"/>
<path d="M420.725 160.833C420.887 160.846 421.049 160.795 421.177 160.67L425.517 156.412C425.771 156.173 425.783 155.746 425.563 155.482C425.343 155.219 424.949 155.194 424.706 155.432L420.366 159.69C420.112 159.929 420.1 160.356 420.32 160.619C420.424 160.745 420.575 160.82 420.725 160.833Z" fill="#050902"/>
<path d="M193.935 349.459L390.959 354.873C390.728 354.144 390.508 353.428 390.276 352.687C383.263 330.029 375.752 307.459 368.553 284.826C366.701 279.048 364.884 273.245 363.09 267.443C363.727 264.818 364.375 262.218 365.023 259.593C339.342 250.662 313.962 242.762 288.292 235.741C269.08 230.491 249.695 225.731 229.916 221.385C220.148 248.615 211.549 276.348 204.304 304.482C200.45 319.378 196.99 334.362 193.935 349.447V349.459Z" fill="#7139BE"/>
<path d="M280.642 318.901C287.355 313.94 296.197 312.52 303.951 315.171L292.378 342.539C284.485 341.911 276.789 341.685 268.896 341.057C269.463 332.252 273.918 323.85 280.631 318.888L280.642 318.901Z" fill="#934AF7"/>
<path d="M204.293 304.495C215.149 313.99 228.446 320.207 242.288 322.154C249.487 323.159 257.264 322.92 263.398 318.7C269.52 314.467 273.143 305.248 269.624 298.34C267.68 294.535 264.081 292.123 261.315 288.971C258.537 285.831 256.57 280.844 258.768 277.202C260.898 273.685 265.689 273.497 269.347 274.916C272.992 276.335 276.244 278.922 280.052 279.777C287.019 281.334 294.31 276.21 297.134 269.113C299.958 262.042 298.893 253.652 295.664 246.769C293.755 242.687 291.174 239.057 288.28 235.729C269.069 230.479 249.683 225.718 229.905 221.373C220.137 248.603 211.538 276.335 204.293 304.47V304.495Z" fill="#934AF7"/>
<path d="M319.841 248.151L350.95 257.219C351.841 265.333 347.258 273.786 340.291 276.875C333.324 279.965 324.598 277.415 319.991 270.96C315.397 264.491 315.327 254.682 319.841 248.151Z" fill="#934AF7"/>
<path d="M316.658 349.987L390.276 352.675C383.263 330.017 375.752 307.446 368.553 284.813C363.137 282.326 356.459 282.979 351.807 286.948C345.673 292.186 343.856 302.51 347.791 309.82C349.538 313.086 352.2 315.673 353.936 318.939C355.672 322.204 356.251 326.751 353.832 329.464C351.402 332.202 347.143 331.737 344.041 329.954C340.939 328.158 338.428 325.344 335.291 323.611C328.88 320.069 320.269 322.192 315.883 328.396C311.508 334.588 311.855 344.172 316.67 349.974L316.658 349.987Z" fill="#934AF7"/>
<path d="M335.013 303.025C334.192 305.713 331.368 307.484 328.81 306.919C327.479 306.63 326.287 305.788 325.396 304.683C324.169 303.189 323.475 301.141 323.683 299.157C323.891 297.172 325.06 295.288 326.75 294.497C331.009 292.513 336.437 298.403 335.013 303.013V303.025Z" fill="#934AF7"/>
<path d="M209.003 331.875C209.721 329.79 211.248 327.906 213.239 327.379C215.554 326.763 218.065 328.12 219.408 330.242C220.762 332.365 221.097 335.103 220.82 337.665L208.332 338.482C208.228 336.259 208.274 333.96 208.992 331.875H209.003Z" fill="#934AF7"/>
<path d="M290.908 345.955C291.151 345.98 291.405 345.83 291.509 345.566L308.65 304.457C308.788 304.13 308.65 303.728 308.349 303.578C308.036 303.427 307.677 303.578 307.539 303.904L290.398 345.013C290.26 345.34 290.398 345.742 290.699 345.892C290.769 345.93 290.838 345.943 290.896 345.955H290.908Z" fill="#050902"/>
<path d="M203.298 343.117C203.576 343.142 203.83 342.966 203.923 342.664L238.365 229.436C238.469 229.084 238.296 228.72 237.983 228.607C237.659 228.494 237.324 228.682 237.219 229.022L202.777 342.25C202.673 342.602 202.847 342.966 203.159 343.079C203.205 343.091 203.252 343.104 203.298 343.104V343.117Z" fill="#050902"/>
<path d="M227.717 265.86C227.786 265.86 227.844 265.86 227.914 265.848C243.052 261.766 256.454 250.399 263.768 235.44C263.93 235.113 263.814 234.724 263.513 234.548C263.212 234.372 262.854 234.498 262.692 234.824C255.539 249.457 242.427 260.572 227.613 264.567C227.289 264.654 227.092 265.006 227.173 265.37C227.243 265.647 227.462 265.848 227.717 265.873V265.86Z" fill="#050902"/>
<path d="M218.714 112.98C229.234 86.5661 252.901 65.2141 279.37 63.418C295.653 62.3128 311.763 62.2625 328.047 61.1572C327.897 65.5407 331.044 69.786 335.026 70.5647C339.007 71.3434 343.717 68.4797 344.99 64.3098C358.844 72.2728 372.708 80.2233 386.562 88.1864C406.931 99.8923 419.083 124.497 426.721 148.098C413.539 154.151 400.056 160.771 386.874 166.825C381.377 199.606 375.231 231.609 369.734 264.391L222.788 226.208C231.826 194.733 241.096 163.534 250.124 132.071C239.592 125.992 229.234 119.059 218.691 112.992L218.714 112.98Z" fill="#DD403F"/>
<path d="M333.348 91.1378C344.261 92.105 355.418 86.3273 361.853 76.1286C362.038 75.8272 361.968 75.4127 361.691 75.2117C361.413 75.0108 361.043 75.0861 360.846 75.3876C354.191 85.9505 341.727 91.7156 330.547 89.4045C319.355 87.0935 309.564 76.744 306.74 64.2217C306.659 63.87 306.335 63.644 306 63.7319C305.676 63.8198 305.479 64.1715 305.548 64.5357C308.534 77.7488 318.476 88.2616 330.304 90.6982C331.311 90.9117 332.318 91.0499 333.336 91.1378H333.348Z" fill="#050902"/>
<path d="M386.458 168.47C386.758 168.495 387.036 168.282 387.094 167.955L392.73 140.876C392.8 140.524 392.603 140.172 392.267 140.084C391.943 140.009 391.608 140.223 391.538 140.587L385.902 167.666C385.833 168.018 386.029 168.37 386.365 168.457C386.388 168.457 386.423 168.457 386.446 168.47H386.458Z" fill="#050902"/>
<path d="M389.675 155.972C389.779 155.972 389.884 155.972 389.988 155.91L423.261 138.665C423.562 138.514 423.689 138.112 423.55 137.786C423.411 137.459 423.041 137.321 422.74 137.472L389.467 154.716C389.166 154.867 389.039 155.269 389.178 155.596C389.27 155.822 389.467 155.947 389.675 155.972Z" fill="#050902"/>
<path d="M277.771 135.462C277.991 135.487 278.211 135.374 278.338 135.161C278.512 134.847 278.431 134.445 278.142 134.256L226.432 99.0757C226.154 98.8747 225.772 98.9752 225.599 99.2892C225.425 99.6032 225.506 100.005 225.796 100.194L277.505 135.374C277.586 135.437 277.679 135.462 277.783 135.475L277.771 135.462Z" fill="#050902"/>
<path d="M314.552 229.097L314.656 229.009C314.783 228.921 318.267 226.861 353.206 221.398C442.599 206.338 502.595 171.208 541.968 135.99C542.037 136.429 542.164 136.856 542.338 137.296C527.883 150.245 512.027 161.951 494.876 172.301C454.554 196.629 406.941 213.548 353.369 222.566C320.824 227.665 315.778 229.75 315.258 230.001L232.867 320.458L232.092 319.63L314.552 229.11V229.097Z" fill="#29153D"/>
<path d="M217.452 155.621C221.121 143.237 224.789 130.853 228.458 118.481L272.472 143.124C270.886 149.466 269.555 155.684 267.97 162.039C286.406 172.376 306.092 180.1 322.989 193.163C331.947 200.083 349.226 214.138 349.226 214.138C349.226 214.138 356.911 228.971 360.753 236.382C357.651 239.22 354.353 242.348 351.251 245.186C350.73 245.274 349.758 244.483 349.643 243.93C349.538 243.365 349.689 242.787 349.851 242.247C350.36 240.464 350.869 238.668 351.379 236.884C349.203 234.736 347.235 232.187 345.059 230.026C345.059 233.732 345.06 237.575 345.071 241.28C345.071 243.39 342.826 244.809 340.882 244.935C338.937 245.061 336.993 243.679 336.322 241.695C335.743 239.961 335.43 238.115 334.91 236.369C334.748 238.542 334.586 240.715 334.424 242.888C334.273 244.847 332.028 246.379 330.223 246.141C328.417 245.902 326.936 244.408 326.091 242.662C325.246 240.916 324.945 238.931 324.656 236.997C324.32 238.768 323.984 240.539 323.649 242.31C323.383 243.704 321.38 244.408 320.131 244.006C318.869 243.604 317.943 242.398 317.434 241.092C316.913 239.785 315.235 232.953 315.235 232.953C315.235 232.953 298.407 225.392 290.908 219.916C273.201 214.452 254.903 208.411 236.849 202.319C230.611 200.209 225.287 195.8 221.098 190.349C216.908 184.898 214.327 177.902 214.431 170.806C214.512 165.619 215.994 160.582 217.452 155.633V155.621Z" fill="#8F5D63"/>
<path d="M269.544 163.345C269.798 163.37 270.053 163.22 270.157 162.943C270.284 162.604 270.146 162.215 269.833 162.077L257.126 156.224C256.813 156.073 256.454 156.236 256.327 156.575C256.2 156.914 256.339 157.304 256.651 157.442L269.359 163.295C269.416 163.32 269.486 163.345 269.544 163.345Z" fill="#050902"/>
<path d="M344.955 233.342C344.955 233.342 345.013 233.342 345.048 233.342C345.383 233.317 345.638 233.003 345.615 232.639L344.978 222.503C344.955 222.139 344.666 221.862 344.33 221.888C343.994 221.913 343.74 222.227 343.763 222.591L344.4 232.727C344.423 233.053 344.666 233.317 344.955 233.342Z" fill="#050902"/>
<path d="M334.563 239.823C334.563 239.823 334.62 239.823 334.644 239.823C334.979 239.81 335.234 239.496 335.222 239.132L334.574 225.14C334.563 224.776 334.273 224.5 333.938 224.512C333.602 224.525 333.347 224.839 333.359 225.203L334.007 239.195C334.019 239.534 334.262 239.798 334.563 239.823Z" fill="#050902"/>
<path d="M324.841 240.828C324.841 240.828 324.933 240.828 324.98 240.828C325.315 240.777 325.547 240.438 325.5 240.087L323.88 227.665C323.834 227.301 323.521 227.049 323.197 227.1C322.862 227.15 322.63 227.489 322.677 227.841L324.297 240.263C324.332 240.577 324.575 240.803 324.852 240.828H324.841Z" fill="#050902"/>
<path d="M315.154 234.259C315.211 234.259 315.281 234.259 315.339 234.246C315.663 234.158 315.871 233.807 315.79 233.455L314.934 229.524C314.853 229.172 314.529 228.946 314.205 229.034C313.881 229.122 313.672 229.474 313.753 229.825L314.61 233.769C314.667 234.058 314.899 234.246 315.154 234.271V234.259Z" fill="#050902"/>
<path d="M495.142 178.543C495.686 180.163 496.982 181.469 498.51 181.934C500.038 182.398 502.109 182.348 503.348 181.268C504.274 183.504 506.623 184.936 508.868 184.609C511.102 184.282 513.289 182.675 513.648 180.251C514.956 181.331 516.808 181.582 518.324 180.891C519.84 180.201 520.951 179.145 521.159 177.374C524.168 178.191 527.663 176.458 529.133 173.493C533.6 164.463 538.056 155.432 542.523 146.402C541.76 145.56 540.579 145.208 539.503 145.447C538.438 145.686 537.477 146.314 536.575 146.954C533.161 149.403 530.071 152.368 527.409 155.734C527.883 153.184 528.254 150.936 528.728 148.386C527.536 147.218 525.511 147.67 524.191 148.662C522.872 149.655 522.027 151.212 521.217 152.732C519.018 156.877 516.819 161.021 514.62 165.179C515.245 161.323 515.87 157.467 516.483 153.598C515.234 152.267 513.197 152.757 511.796 153.9C510.396 155.043 509.574 156.826 508.81 158.534C507.352 161.788 505.882 165.053 504.424 168.306C504.621 164.576 504.806 160.833 505.003 157.103C503.834 156.374 502.144 157.103 501.253 158.183C500.362 159.263 499.968 160.72 499.598 162.127C498.232 167.364 496.508 173.33 495.142 178.568V178.543Z" fill="#8F5D63"/>
<path d="M522.178 176.307C522.467 176.332 522.745 176.131 522.815 175.804L529.157 148.235C529.215 147.972 529.122 147.708 528.925 147.544C527.745 146.59 525.696 146.615 524.354 147.607C523.173 148.486 522.41 149.805 521.738 150.986L514.389 163.772C514.216 164.086 514.297 164.488 514.586 164.676C514.875 164.865 515.246 164.777 515.419 164.463L522.768 151.677C523.382 150.622 524.065 149.416 525.037 148.687C525.824 148.097 527.039 147.997 527.849 148.386L521.611 175.478C521.53 175.83 521.727 176.194 522.051 176.282C522.086 176.282 522.12 176.294 522.155 176.294L522.178 176.307Z" fill="#050902"/>
<path d="M512.71 179.573C513.022 179.598 513.312 179.359 513.358 179.02L516.981 153.687C517.004 153.498 516.957 153.31 516.842 153.159C515.765 151.752 513.717 151.865 512.363 152.782C511.09 153.649 510.326 155.043 509.655 156.274L503.706 167.176C503.532 167.49 503.625 167.892 503.914 168.08C504.204 168.269 504.574 168.168 504.748 167.854L510.696 156.965C511.298 155.859 511.981 154.603 512.999 153.913C513.821 153.36 515.036 153.222 515.719 153.812L512.143 178.819C512.097 179.183 512.316 179.51 512.652 179.573C512.664 179.573 512.687 179.573 512.698 179.573H512.71Z" fill="#050902"/>
<path d="M503.591 180.15C503.926 180.175 504.216 179.899 504.239 179.535L505.604 157.266C505.604 157.14 505.581 157.002 505.524 156.889C505.292 156.462 504.933 156.198 504.482 156.111C503.533 155.922 502.352 156.651 501.646 157.316C500.651 158.246 500.281 159.715 500.015 160.783L496.855 173.154C496.103 172.753 495.408 172.288 494.691 171.811C493.777 171.195 492.828 170.555 491.728 170.052C491.416 169.914 491.057 170.077 490.93 170.404C490.802 170.743 490.941 171.132 491.254 171.27C492.272 171.723 493.128 172.313 494.043 172.928C494.957 173.544 495.906 174.184 497.006 174.687C497.168 174.762 497.353 174.75 497.503 174.674C497.654 174.586 497.781 174.436 497.827 174.26L501.172 161.147C501.473 159.979 501.774 158.962 502.433 158.334C503.035 157.768 503.857 157.367 504.274 157.429C504.308 157.429 504.343 157.442 504.366 157.454L503.012 179.46C502.989 179.824 503.244 180.138 503.568 180.163L503.591 180.15Z" fill="#050902"/>
<path d="M325.061 16.4686C325.153 16.4686 325.246 16.4686 325.327 16.4309C325.605 16.3179 325.755 16.0039 325.697 15.6899C325.246 13.2156 325.952 10.4147 327.572 8.19157C329.019 6.21965 331.16 4.66219 333.775 3.69507C335.87 2.91635 338.208 2.48932 341.391 2.30092C341.726 2.2758 341.981 1.97434 341.969 1.6101C341.946 1.24586 341.657 0.969541 341.333 0.982101C338.046 1.1705 335.592 1.62267 333.394 2.43907C330.558 3.49411 328.22 5.18972 326.635 7.3626C325.338 9.13356 324.563 11.2562 324.389 13.3412C324.308 13.2156 324.239 13.09 324.158 12.9644C323.672 12.1605 323.197 11.3441 322.711 10.49C322.538 10.176 322.167 10.0881 321.878 10.2765C321.589 10.4649 321.508 10.8794 321.681 11.1809C322.167 12.0475 322.653 12.8639 323.14 13.6803C323.626 14.4841 324.1 15.3005 324.586 16.1546C324.69 16.343 324.864 16.4435 325.049 16.4686H325.061Z" fill="black"/>
<path d="M314.425 27.2827C315.096 25.9388 316.554 24.6954 317.966 24.7833C316.323 22.5351 316.323 19.0434 317.966 16.7952C319.609 14.5469 322.642 13.944 325.037 15.1749C325.466 10.892 328.637 7.3877 332.271 5.65442C335.905 3.92114 339.979 3.64484 343.948 3.50668C345.858 3.44388 347.779 3.40621 349.642 3.87093C351.494 4.33565 353.299 5.37811 354.387 7.07371C355.475 8.76931 355.927 11.5828 354.85 13.2784C356.239 13.404 357.535 14.3836 358.126 15.7652C358.716 17.1343 358.565 18.8425 357.767 20.0859C356.957 21.3168 355.394 22.1583 354.005 22.0076C354.04 26.7678 354.075 31.5406 354.11 36.3009L320.663 49.6647C318.88 45.1431 317.086 40.6215 315.304 36.0873C314.749 34.6806 314.182 33.2488 313.939 31.7416C313.684 30.2344 313.765 28.6141 314.448 27.2576L314.425 27.2827Z" fill="black"/>
<path d="M315.732 64.0961C318.649 63.8952 321.658 63.757 324.586 63.5561C325.246 61.0692 325.558 58.4693 326.218 55.9824C323.51 56.0326 320.848 54.2868 319.621 51.6743C318.383 49.0618 318.649 45.6958 320.257 43.347C321.866 40.9858 324.91 40.0061 327.572 40.5336C327.861 41.1114 328.486 41.7142 328.787 42.292C330.234 42.2166 331.634 41.4505 332.537 40.2196C333.439 39.0013 333.59 37.2429 333.347 35.698C334.388 36.6023 335.951 36.7154 337.085 35.9618C338.219 35.2082 338.96 33.6884 338.694 32.2817C340.326 33.8642 342.698 34.4922 344.816 33.8894C346.934 33.2865 348.832 31.3522 349.526 29.104C352.038 30.8624 354.121 33.3367 355.51 36.213C357.084 39.466 357.396 43.121 358.334 46.6503C359.155 49.7526 358.056 53.3071 356.193 55.8443C354.341 58.3688 351.413 59.9262 348.439 59.9765C347.883 62.7773 347.524 65.3145 346.969 68.1279C348.878 69.3463 351.193 70.6901 353.103 71.9085C348.381 78.8165 339.84 82.5845 332.051 80.9643C324.262 79.3566 317.792 72.4486 315.744 64.1339L315.732 64.0961Z" fill="#8F5D63"/>
<path d="M345.336 46.8262C345.29 48.0696 344.202 49.1623 343.056 49.1121C341.911 49.0619 340.915 47.8687 340.973 46.6252L345.336 46.8262Z" fill="white"/>
<path d="M342.617 61.6846C344.851 61.8855 347.096 61.7599 349.272 61.3203C349.608 61.2575 349.816 60.9058 349.758 60.5542C349.7 60.2025 349.376 59.9638 349.052 60.0266C344.481 60.9561 339.597 60.3783 335.303 58.4189C335.002 58.2808 334.632 58.4315 334.504 58.7706C334.377 59.1097 334.516 59.4991 334.828 59.6373C337.293 60.7551 339.932 61.4459 342.617 61.6846Z" fill="#050902"/>
<path d="M326.865 47.3538C327.155 47.3789 327.421 47.1779 327.502 46.8765C327.595 46.5248 327.398 46.1606 327.074 46.0601L322.977 44.8418C322.664 44.7413 322.317 44.9548 322.225 45.3065C322.132 45.6582 322.329 46.0224 322.653 46.1229L326.75 47.3412C326.75 47.3412 326.819 47.3538 326.865 47.3664V47.3538Z" fill="#050902"/>
<path d="M348.068 45.4947C348.068 45.4947 348.137 45.4947 348.172 45.4947L349.966 45.344C350.174 45.3314 350.359 45.1932 350.452 44.9923C350.545 44.7913 350.545 44.5527 350.452 44.3643L348.045 39.7296C347.883 39.4156 347.501 39.3026 347.223 39.4785C346.934 39.6543 346.83 40.0562 346.992 40.3702L348.936 44.1131L348.091 44.1885C347.755 44.2136 347.501 44.5401 347.536 44.9043C347.559 45.2309 347.802 45.4821 348.091 45.5072L348.068 45.4947Z" fill="#050902"/>
<path d="M337.941 43.6734C338.184 43.6986 338.427 43.5604 338.543 43.3092C338.798 42.7314 339.365 42.3044 339.955 42.2667C340.545 42.2165 341.17 42.543 341.494 43.0705C341.679 43.372 342.061 43.4474 342.339 43.2464C342.617 43.0454 342.686 42.6309 342.501 42.3295C341.922 41.4126 340.892 40.8725 339.862 40.9479C338.832 41.0358 337.883 41.7392 337.444 42.7314C337.293 43.058 337.42 43.4599 337.721 43.6106C337.791 43.6483 337.86 43.6609 337.941 43.6734Z" fill="#050902"/>
<path d="M351.979 41.1617C351.979 41.1617 352.014 41.1617 352.026 41.1617C352.361 41.1617 352.639 40.8728 352.639 40.5085C352.639 40.0312 352.905 39.5665 353.287 39.3405C353.669 39.1144 354.178 39.1269 354.549 39.3781C354.838 39.5665 355.208 39.4786 355.382 39.1772C355.556 38.8632 355.475 38.4612 355.197 38.2728C354.456 37.7579 353.472 37.7328 352.708 38.185C351.933 38.6371 351.435 39.554 351.424 40.5085C351.424 40.8602 351.667 41.1491 351.979 41.1742V41.1617Z" fill="#050902"/>
<path d="M349.851 34.4296C350.094 34.4547 350.337 34.304 350.452 34.0528C350.649 33.5881 351.031 33.2238 351.471 33.0731C351.922 32.9224 352.42 32.9852 352.825 33.2364C353.114 33.4248 353.485 33.3117 353.658 32.9977C353.832 32.6837 353.728 32.2818 353.438 32.0934C352.744 31.6538 351.864 31.5408 351.1 31.8045C350.337 32.0683 349.677 32.6963 349.341 33.4876C349.202 33.8141 349.341 34.2035 349.642 34.3668C349.712 34.4045 349.781 34.417 349.851 34.4296Z" fill="#050902"/>
<path d="M337.421 38.3481C337.664 38.3732 337.907 38.2351 338.011 37.9839C338.173 37.6071 338.52 37.3182 338.948 37.1926C339.376 37.0544 339.805 37.1172 340.129 37.3433C340.406 37.5317 340.788 37.4438 340.973 37.1423C341.159 36.8409 341.066 36.4264 340.788 36.2255C340.175 35.7984 339.376 35.6979 338.624 35.924C337.86 36.1627 337.247 36.7027 336.923 37.4187C336.772 37.7452 336.9 38.1346 337.201 38.2979C337.27 38.3356 337.339 38.3607 337.421 38.3607V38.3481Z" fill="#050902"/>
<path d="M1.99965 212.06C3.14652 194.764 29.8363 139.758 29.8363 139.758L59.8999 152.566L1.99965 212.049V212.06Z" fill="#DE7C51"/>
<path d="M285.455 129.624C277.193 116.838 268.698 103.797 256.639 94.4973C248.689 88.3719 238.189 84.9528 228.657 81.7788C208.949 75.2302 189.218 67.902 169.499 61.3534C166.771 63.5585 163.152 64.6277 159.667 64.2824C156.182 63.9372 152.563 62.1218 150.325 59.4155C134.625 63.7924 118.914 68.1693 103.214 72.5462C86.0779 77.324 69.0753 85.5209 55.8139 97.393C42.5636 109.254 31.6962 123.509 20.9735 137.709C36.1167 143.411 51.3712 149.303 66.5143 155.005C64.2763 191.735 62.4278 228.398 60.1898 265.129L258.988 270.998C262.507 241.596 266.27 212.072 269.789 182.67C283.028 177.68 296.69 172.49 309.929 167.501C301.767 154.871 293.606 142.242 285.444 129.613L285.455 129.624Z" fill="#FBB800"/>
<path d="M161.939 74.3393C161.271 74.3393 160.592 74.3058 159.923 74.239C152.909 73.5151 146.361 68.9712 143.244 62.6453C143.11 62.3669 143.221 62.0328 143.5 61.8991C143.778 61.7655 144.112 61.8768 144.246 62.1553C147.197 68.147 153.399 72.446 160.046 73.1365C166.682 73.8158 173.63 70.8645 177.739 65.5966C177.928 65.3516 178.273 65.3071 178.518 65.4964C178.763 65.6857 178.808 66.031 178.619 66.276C174.688 71.2988 168.319 74.3393 161.939 74.3393Z" fill="#050902"/>
<path d="M219.927 188.962C219.716 188.962 219.515 188.84 219.415 188.628C219.293 188.35 219.415 188.015 219.693 187.893L300.353 151.831C300.642 151.709 300.965 151.831 301.088 152.11C301.21 152.388 301.088 152.722 300.809 152.845L220.15 188.906C220.072 188.94 219.994 188.951 219.927 188.951V188.962Z" fill="#050902"/>
<path d="M60.8692 138.01C60.8024 138.01 60.7244 137.999 60.6576 137.965L31.4959 126.149C31.2064 126.037 31.0728 125.703 31.1841 125.425C31.2955 125.135 31.6184 125.002 31.9079 125.113L61.0696 136.93C61.3591 137.041 61.4927 137.375 61.3813 137.653C61.2923 137.865 61.0807 137.999 60.8692 137.999V138.01Z" fill="#050902"/>
<path d="M211.565 198.651C211.565 198.651 211.487 198.651 211.442 198.64C211.142 198.573 210.953 198.273 211.019 197.972L230.082 113.709C231.24 108.619 232.52 103.507 233.79 98.93C234.502 96.3684 235.237 93.7289 236.752 91.4236C238.477 88.8063 241.027 87.1581 243.599 87.0244C243.9 86.991 244.167 87.2472 244.19 87.5479C244.212 87.8597 243.967 88.1159 243.666 88.1381C241.45 88.2606 239.212 89.7196 237.687 92.0361C236.273 94.1967 235.56 96.7471 234.87 99.2307C233.6 103.786 232.331 108.887 231.184 113.965L212.122 198.239C212.066 198.495 211.832 198.674 211.576 198.674L211.565 198.651Z" fill="#050902"/>
<path d="M82.0689 120.435C82.0689 120.435 82.0466 120.435 82.0354 120.435C81.7237 120.413 81.501 120.146 81.5121 119.845L84.1845 79.6403C84.2067 79.3285 84.4739 79.1057 84.7746 79.1169C85.0863 79.1391 85.3091 79.4064 85.2979 79.7071L82.6256 119.912C82.6033 120.202 82.3584 120.435 82.0689 120.435Z" fill="#050902"/>
<path d="M17.4089 187.346C30.3696 172.411 44.2991 157.566 56.6586 142.13C65.1877 131.471 73.728 120.802 82.2572 110.144C88.5482 113.117 95.552 116.47 101.832 119.432C103.58 120.256 103.825 122.729 103.124 124.544C104.905 125.123 105.852 126.382 106.442 128.164C107.032 129.946 106.72 131.995 105.64 133.532C107.466 134.166 109.303 135.804 109.648 137.708C109.994 139.613 109.236 141.684 107.733 142.909C109.259 143.254 109.715 146.105 109.37 147.631C109.025 149.157 107.923 150.382 106.854 151.529C102.478 156.262 98.1018 160.996 93.7259 165.729C94.0377 170.897 91.6437 176.02 87.1341 178.548C83.8494 195.521 77.5139 211.658 69.4412 226.938C64.2859 236.683 55.8681 245.56 45.3681 248.912C34.8681 252.264 22.7981 250.482 13.8681 244C4.9492 237.53 -0.517897 226.448 0.0388365 215.445C0.59557 204.43 10.1603 195.699 17.3867 187.368L17.4089 187.346Z" fill="#DE7C51"/>
<path d="M14.3916 190.487C14.2579 190.487 14.1354 190.442 14.0241 190.353C13.7903 190.153 13.768 189.796 13.9684 189.574L47.5394 151.273C47.7398 151.039 48.0962 151.017 48.33 151.217C48.5638 151.418 48.5861 151.774 48.3856 152.008L14.8147 190.309C14.7033 190.431 14.5474 190.498 14.3916 190.498V190.487Z" fill="#050902"/>
<path d="M84.2275 127.841C83.9492 127.841 83.7153 127.64 83.6708 127.351C83.6374 127.05 83.8489 126.772 84.1496 126.727L103.19 124.333C103.502 124.288 103.769 124.511 103.813 124.811C103.847 125.112 103.635 125.391 103.335 125.435L84.2943 127.83C84.2943 127.83 84.2498 127.83 84.2275 127.83V127.841Z" fill="#050902"/>
<path d="M87.2118 142.163C87.0002 142.163 86.7887 142.04 86.6997 141.829C86.5772 141.55 86.6997 141.216 86.978 141.094L105.372 132.941C105.651 132.819 105.985 132.941 106.107 133.22C106.23 133.498 106.107 133.832 105.829 133.955L87.4345 142.107C87.3566 142.141 87.2897 142.152 87.2118 142.152V142.163Z" fill="#050902"/>
<path d="M94.8953 151.563C94.706 151.563 94.5278 151.474 94.4165 151.295C94.2495 151.039 94.3385 150.694 94.5946 150.527L107.667 142.43C107.934 142.263 108.268 142.352 108.435 142.609C108.591 142.865 108.513 143.21 108.257 143.377L95.1848 151.474C95.0957 151.529 94.9955 151.563 94.8953 151.563Z" fill="#050902"/>
<path d="M82.1014 182.245C81.901 182.245 81.7006 182.134 81.6004 181.945C81.4668 181.666 81.5669 181.332 81.8453 181.198L87.1343 178.525C87.4126 178.392 87.7467 178.492 87.8803 178.77C88.014 179.049 87.9137 179.383 87.6353 179.517L82.3464 182.19C82.2684 182.234 82.1794 182.245 82.0903 182.245H82.1014Z" fill="#050902"/>
<path d="M90.6415 126.783C90.4077 126.783 90.1961 126.638 90.1182 126.415L88.8377 122.773C88.7375 122.484 88.8822 122.161 89.1829 122.061C89.4724 121.96 89.7953 122.105 89.8955 122.406L91.176 126.048C91.2762 126.337 91.1314 126.66 90.8308 126.76C90.764 126.783 90.7083 126.794 90.6415 126.794V126.783Z" fill="#050902"/>
<path d="M173.751 24.5108C171.947 18.5636 170.277 12.2934 168.184 6.44641C167.193 3.66214 164.186 1.75769 161.247 2.02498C158.307 2.30341 155.624 4.93177 155.167 7.84969C154.633 6.8028 153.263 6.26823 152.161 6.66916C151.058 7.0701 150.157 8.64041 150.413 9.78753C148.832 7.86082 145.892 7.20376 143.643 8.28405C141.394 9.36435 140.069 12.0929 140.581 14.5319C139.1 12.9727 136.416 13.0284 134.691 14.2981C132.965 15.5788 132.118 17.784 132.04 19.9334C131.963 22.0829 132.542 24.1878 133.187 26.237C133.321 26.638 133.455 27.05 133.588 27.451C132.542 27.7851 131.795 28.8988 131.84 30.0236C131.885 31.2376 132.742 32.3402 133.867 32.819C134.434 33.0641 135.069 33.1531 135.682 33.1086C137.574 37.775 139.846 42.2855 142.474 46.5845C147.941 46.2169 153.642 46.0053 159.098 45.6378L173.228 32.7745C174.798 30.3466 174.575 27.2839 173.729 24.5108H173.751Z" fill="#050902"/>
<path d="M169.008 66.3082C169.331 63.4014 169.431 60.3164 169.754 57.4208C173.484 56.2625 176.668 53.4337 178.261 49.8698C179.853 46.306 180.109 42.1296 178.483 38.5657C176.245 33.6765 173.506 29.0992 170.311 24.7668C169.999 26.1033 168.997 27.2615 167.716 27.7516C166.436 28.2416 164.587 28.353 163.474 27.5511C163.329 28.7094 162.483 29.7451 161.381 30.1349C160.278 30.5136 158.931 30.547 158.096 29.734C157.227 31.6607 154.477 32.6853 152.773 31.4379C152.696 34.2111 152.618 36.9842 152.551 39.7574C152.528 40.4924 152.495 41.2831 152.061 41.8845C151.593 42.5305 150.68 42.8089 149.923 42.5416C149.177 42.2743 148.13 41.4836 148.186 40.6817C145.38 40.5481 142.574 42.1518 141.26 44.6243C139.946 47.0967 140.18 50.3265 141.85 52.5761C143.521 54.8258 146.538 55.9952 149.288 55.4606C148.81 58.3563 148.175 61.419 147.696 64.3146C149.934 67.8228 153.753 70.1393 157.895 70.518C162.038 70.8966 166.18 69.3597 169.019 66.3193L169.008 66.3082Z" fill="#DE7C51"/>
<path d="M163.596 42.4749C163.396 43.7779 164.487 45.1366 165.812 45.2146C167.126 45.2926 168.373 44.0786 168.328 42.7533L163.596 42.4749Z" fill="white"/>
<path d="M174.208 34.2222C174.208 33.554 173.662 33.0083 172.994 33.0083C172.326 33.0083 171.78 33.554 171.78 34.2222C171.78 34.8905 172.326 35.4362 172.994 35.4362C173.662 35.4362 174.208 34.8905 174.208 34.2222Z" fill="#050902"/>
<path d="M161.937 39.1004C161.937 38.4322 161.391 37.8865 160.723 37.8865C160.055 37.8865 159.51 38.4322 159.51 39.1004C159.51 39.7686 160.055 40.3144 160.723 40.3144C161.391 40.3144 161.937 39.7686 161.937 39.1004Z" fill="#050902"/>
<path d="M148.842 46.5175H144.344C144.032 46.5175 143.787 46.2725 143.787 45.9607C143.787 45.6488 144.032 45.4038 144.344 45.4038H148.842C149.154 45.4038 149.399 45.6488 149.399 45.9607C149.399 46.2725 149.154 46.5175 148.842 46.5175Z" fill="#050902"/>
<path d="M168.317 40.3143C168.072 40.3143 167.838 40.1472 167.782 39.8911C167.704 39.5904 167.894 39.2897 168.183 39.2117C168.484 39.1338 168.874 39.0781 169.263 39.0113C169.33 39.0113 169.397 38.989 169.464 38.9779L166.29 34.3448C166.112 34.0887 166.179 33.7434 166.435 33.5764C166.691 33.3982 167.036 33.465 167.215 33.7212L170.867 39.0558C170.967 39.2006 170.989 39.4011 170.934 39.5681C170.867 39.7352 170.722 39.8688 170.544 39.9134C170.243 39.9913 169.842 40.0581 169.453 40.1138C169.096 40.1695 168.729 40.2252 168.462 40.3032C168.417 40.3032 168.373 40.3143 168.328 40.3143H168.317Z" fill="#050902"/>
<path d="M156.181 36.6613C156.181 36.6613 156.147 36.6613 156.136 36.6613C155.824 36.6391 155.602 36.3718 155.624 36.06C155.713 34.8794 156.392 33.7768 157.472 33.0418C158.552 32.3067 159.833 32.084 160.968 32.4404C161.258 32.5295 161.425 32.8413 161.336 33.1309C161.247 33.4205 160.935 33.5987 160.646 33.4984C159.844 33.2534 158.897 33.4205 158.107 33.9662C157.316 34.5008 156.804 35.3249 156.737 36.1602C156.715 36.4498 156.47 36.6725 156.181 36.6725V36.6613Z" fill="#050902"/>
<path d="M168.952 30.2574H168.941C168.629 30.2574 168.395 29.9902 168.395 29.6895C168.418 28.7985 168.974 27.9521 169.854 27.4732C170.734 26.9943 171.747 26.9832 172.504 27.4509C172.771 27.6068 172.849 27.9521 172.693 28.2194C172.537 28.4755 172.192 28.5646 171.925 28.3976C171.502 28.1414 170.912 28.1637 170.388 28.4421C169.865 28.7317 169.531 29.2106 169.52 29.7117C169.52 30.0124 169.264 30.2574 168.963 30.2574H168.952Z" fill="#050902"/>
<path d="M148.853 56.2625C148.586 56.2625 148.352 56.0732 148.308 55.7948C148.252 55.4941 148.464 55.2045 148.764 55.1488L150.969 54.7701C151.269 54.7145 151.559 54.9261 151.615 55.2268C151.67 55.5275 151.459 55.817 151.158 55.8727L148.953 56.2514C148.953 56.2514 148.887 56.2514 148.853 56.2514V56.2625Z" fill="#050902"/>
<path d="M164.787 58.8908C162.237 58.8908 159.687 58.501 157.238 57.7326C156.948 57.6435 156.781 57.3316 156.87 57.0309C156.959 56.7413 157.271 56.5743 157.572 56.6634C161.759 57.9776 166.224 58.1223 170.477 57.0866C170.778 57.0086 171.078 57.198 171.145 57.4987C171.223 57.7994 171.034 58.1001 170.733 58.1669C168.773 58.6458 166.769 58.8797 164.776 58.8797L164.787 58.8908Z" fill="#050902"/>
<path d="M216.53 201.78C216.464 204.631 215.907 207.482 215.84 210.333C200.819 232.418 185.186 254.18 170.166 276.264L266.77 277.645C275.622 260.739 282.303 241.606 283.405 222.55C284.263 207.716 284.975 192.981 285.833 178.147C262.739 186.021 239.635 193.895 216.542 201.78H216.53Z" fill="#DE7C51"/>
<path d="M215.996 212.226C215.74 212.226 215.506 212.048 215.451 211.781C215.384 211.48 215.584 211.179 215.885 211.124L221.886 209.887C222.198 209.821 222.476 210.021 222.543 210.322C222.61 210.622 222.41 210.912 222.109 210.979L216.107 212.215C216.107 212.215 216.029 212.215 215.996 212.215V212.226Z" fill="#050902"/>
<path d="M131.684 97.0688C131.44 97.0688 131.206 96.9018 131.15 96.6456C131.072 96.3449 131.25 96.0442 131.551 95.9662L139.701 93.8948C139.991 93.8168 140.303 93.995 140.381 94.2957C140.459 94.5964 140.28 94.8971 139.98 94.9751L131.829 97.0465C131.829 97.0465 131.74 97.0688 131.696 97.0688H131.684Z" fill="white"/>
<path d="M133.008 78.8376C132.852 78.8376 132.708 78.7708 132.596 78.6482L129.178 74.7948C128.978 74.5609 129 74.2157 129.223 74.0041C129.456 73.8036 129.802 73.8147 130.013 74.0486L133.431 77.902C133.632 78.1359 133.61 78.4812 133.387 78.6928C133.276 78.7819 133.153 78.8376 133.019 78.8376H133.008Z" fill="white"/>
<path d="M170.243 92.5362C169.987 92.5362 169.753 92.358 169.698 92.1018C169.631 91.8011 169.82 91.5004 170.121 91.4336L177.826 89.7185C178.126 89.6517 178.427 89.841 178.494 90.1417C178.561 90.4424 178.371 90.7431 178.071 90.8099L170.366 92.525C170.366 92.525 170.288 92.5362 170.243 92.5362Z" fill="white"/>
<path d="M189.083 126.326C188.961 126.326 188.827 126.281 188.727 126.192L181.022 119.777C180.788 119.577 180.755 119.232 180.955 118.998C181.156 118.764 181.501 118.73 181.735 118.92L189.44 125.335C189.674 125.535 189.707 125.88 189.507 126.114C189.395 126.248 189.239 126.315 189.083 126.315V126.326Z" fill="white"/>
<path d="M151.37 137.886C151.259 137.886 151.147 137.853 151.058 137.786C150.802 137.608 150.746 137.263 150.913 137.007L155.634 130.168C155.813 129.912 156.158 129.845 156.414 130.024C156.67 130.202 156.726 130.547 156.559 130.803L151.838 137.641C151.726 137.797 151.559 137.886 151.381 137.886H151.37Z" fill="white"/>
<path d="M130.871 148.066C130.871 148.066 130.849 148.066 130.838 148.066L123.556 147.676C123.244 147.665 123.01 147.397 123.032 147.086C123.054 146.774 123.311 146.518 123.622 146.562L130.904 146.952C131.216 146.963 131.45 147.23 131.428 147.542C131.417 147.843 131.161 148.066 130.871 148.066Z" fill="white"/>
<path d="M122.22 116.203C122.108 116.203 121.997 116.169 121.897 116.091L117.187 112.672C116.942 112.494 116.886 112.149 117.064 111.892C117.243 111.647 117.588 111.592 117.844 111.77L122.554 115.189C122.799 115.367 122.855 115.713 122.676 115.969C122.565 116.113 122.398 116.203 122.22 116.203Z" fill="white"/>
<path d="M67.9497 107.17C67.9497 107.17 67.8829 107.17 67.8494 107.17L60.5674 105.912C60.2668 105.856 60.0664 105.566 60.1109 105.266C60.1666 104.965 60.4449 104.765 60.7567 104.809L68.0388 106.068C68.3394 106.123 68.5398 106.413 68.4953 106.714C68.4507 106.981 68.2169 107.181 67.9497 107.181V107.17Z" fill="white"/>
<path d="M59.676 125.09C59.3977 125.09 59.1639 124.878 59.1193 124.6L58.3287 118.174C58.2953 117.873 58.5069 117.594 58.8075 117.55C59.1193 117.505 59.3865 117.728 59.431 118.04L60.2216 124.466C60.255 124.767 60.0435 125.045 59.7317 125.09C59.7094 125.09 59.6872 125.09 59.6649 125.09H59.676Z" fill="white"/>
<path d="M42.2843 123.787C42.2843 123.787 42.1952 123.787 42.1507 123.776C41.8501 123.698 41.6719 123.397 41.7499 123.096L42.6072 119.666C42.6851 119.365 42.9857 119.187 43.2864 119.265C43.587 119.343 43.7652 119.644 43.6873 119.944L42.8299 123.375C42.7631 123.631 42.5404 123.798 42.2954 123.798L42.2843 123.787Z" fill="white"/>
<path d="M153.119 163.591C153.052 163.591 152.985 163.591 152.918 163.557L146.07 160.985C145.781 160.873 145.636 160.561 145.748 160.272C145.859 159.982 146.182 159.838 146.46 159.949L153.308 162.522C153.597 162.633 153.742 162.945 153.631 163.234C153.542 163.457 153.33 163.591 153.108 163.591H153.119Z" fill="white"/>
<path d="M202.4 167.466C202.333 167.466 202.278 167.466 202.211 167.433C201.921 167.333 201.765 167.01 201.866 166.72L204.883 158.167C204.983 157.877 205.306 157.721 205.596 157.833C205.885 157.933 206.041 158.256 205.941 158.546L202.923 167.099C202.845 167.333 202.623 167.466 202.4 167.466Z" fill="white"/>
<path d="M174.942 187.625C174.641 187.625 174.385 187.38 174.385 187.068C174.385 186.756 174.63 186.511 174.942 186.511L183.037 186.433L183.082 186.99L183.048 187.547L174.953 187.625H174.942Z" fill="white"/>
<path d="M146.281 207.248C146.081 207.248 145.88 207.137 145.78 206.936L141.927 199.229C141.794 198.951 141.905 198.617 142.172 198.483C142.451 198.349 142.785 198.461 142.918 198.728L146.771 206.435C146.905 206.713 146.793 207.048 146.526 207.181C146.448 207.226 146.359 207.237 146.281 207.237V207.248Z" fill="white"/>
<path d="M113.323 186.277C113.122 186.277 112.933 186.166 112.833 185.976C112.688 185.709 112.788 185.364 113.067 185.219L120.337 181.366C120.616 181.221 120.95 181.321 121.095 181.599C121.239 181.867 121.139 182.212 120.861 182.357L113.59 186.21C113.512 186.255 113.423 186.277 113.334 186.277H113.323Z" fill="white"/>
<path d="M90.6419 213.24C90.5529 213.24 90.4749 213.217 90.3969 213.184L85.2639 210.611C84.9855 210.478 84.8742 210.144 85.0189 209.865C85.1526 209.587 85.4866 209.475 85.765 209.62L90.898 212.193C91.1764 212.326 91.2878 212.661 91.143 212.939C91.0428 213.128 90.8535 213.251 90.6419 213.251V213.24Z" fill="white"/>
<path d="M84.262 242.363C84.1729 242.363 84.0949 242.341 84.017 242.308C83.7386 242.174 83.6273 241.84 83.7721 241.562L86.7673 235.57C86.9009 235.291 87.2349 235.18 87.5133 235.325C87.7917 235.458 87.903 235.793 87.7582 236.071L84.763 242.063C84.6628 242.252 84.4736 242.375 84.262 242.375V242.363Z" fill="white"/>
<path d="M73.3831 257.977C73.2828 257.977 73.1715 257.944 73.0824 257.888L67.0919 254.024C66.8358 253.857 66.7579 253.511 66.925 253.255C67.092 252.999 67.4372 252.921 67.6933 253.088L73.6837 256.953C73.9398 257.12 74.0177 257.465 73.8507 257.721C73.7393 257.888 73.5612 257.977 73.3831 257.977Z" fill="white"/>
<path d="M105.195 241.495C104.905 241.495 104.66 241.261 104.638 240.971C104.616 240.659 104.85 240.403 105.161 240.381L112.432 239.958C112.733 239.924 113 240.169 113.022 240.481C113.045 240.793 112.811 241.049 112.499 241.071L105.228 241.495C105.228 241.495 105.206 241.495 105.195 241.495Z" fill="white"/>
<path d="M145.758 228.364C145.658 228.364 145.558 228.342 145.458 228.275L138.621 223.976C138.365 223.809 138.287 223.475 138.443 223.207C138.61 222.951 138.955 222.862 139.211 223.029L146.048 227.328C146.304 227.495 146.382 227.84 146.226 228.097C146.126 228.264 145.937 228.353 145.758 228.353V228.364Z" fill="white"/>
<path d="M158.686 251.763C158.619 251.763 158.541 251.752 158.474 251.719C158.185 251.607 158.051 251.273 158.174 250.995L161.169 243.722C161.291 243.433 161.614 243.299 161.893 243.421C162.182 243.533 162.316 243.867 162.193 244.145L159.198 251.418C159.109 251.629 158.897 251.763 158.686 251.763Z" fill="white"/>
<path d="M189.072 238.51C189.072 238.51 189.016 238.51 188.994 238.51L181.266 237.43C180.966 237.385 180.754 237.107 180.787 236.806C180.832 236.505 181.11 236.294 181.411 236.327L189.138 237.407C189.439 237.452 189.651 237.73 189.617 238.031C189.584 238.309 189.339 238.51 189.072 238.51Z" fill="white"/>
<path d="M180.521 214.966C180.354 214.966 180.198 214.899 180.087 214.754C179.897 214.509 179.931 214.164 180.176 213.975L186.6 208.841C186.845 208.651 187.191 208.685 187.38 208.93C187.569 209.175 187.536 209.52 187.291 209.709L180.866 214.843C180.766 214.921 180.643 214.966 180.521 214.966Z" fill="white"/>
<path d="M238.165 169.761C238.064 169.761 237.964 169.738 237.864 169.672L232.018 166.008C231.762 165.84 231.684 165.495 231.84 165.239C232.007 164.983 232.352 164.905 232.608 165.061L238.454 168.725C238.71 168.892 238.788 169.237 238.632 169.493C238.532 169.66 238.343 169.75 238.165 169.75V169.761Z" fill="white"/>
<path d="M255.846 157.721C255.59 157.721 255.356 157.532 255.301 157.265C255.245 156.964 255.434 156.675 255.746 156.608L262.583 155.282C262.883 155.227 263.173 155.416 263.24 155.728C263.296 156.029 263.106 156.318 262.794 156.385L255.958 157.71C255.958 157.71 255.891 157.71 255.846 157.71V157.721Z" fill="white"/>
<path d="M274.899 138.621C274.798 138.621 274.687 138.588 274.598 138.532L266.525 133.309C266.269 133.142 266.191 132.797 266.358 132.54C266.525 132.284 266.871 132.206 267.127 132.373L275.199 137.597C275.455 137.764 275.533 138.109 275.366 138.365C275.255 138.532 275.077 138.621 274.899 138.621Z" fill="white"/>
<path d="M253.597 124.5C253.419 124.5 253.252 124.422 253.141 124.266C252.963 124.01 253.029 123.664 253.274 123.486L259.298 119.254C259.554 119.076 259.899 119.143 260.078 119.388C260.256 119.633 260.189 119.989 259.944 120.167L253.92 124.399C253.82 124.466 253.709 124.5 253.597 124.5Z" fill="white"/>
<path d="M240.426 145.181C240.281 145.181 240.136 145.125 240.036 145.014L235.76 140.737C235.538 140.515 235.538 140.169 235.76 139.947C235.983 139.724 236.328 139.724 236.551 139.947L240.827 144.223C241.049 144.446 241.049 144.791 240.827 145.014C240.715 145.125 240.57 145.181 240.437 145.181H240.426Z" fill="white"/>
<path d="M244.668 107.872C244.445 107.872 244.245 107.738 244.156 107.527C244.044 107.237 244.178 106.914 244.456 106.803L250.859 104.185C251.137 104.074 251.471 104.208 251.582 104.486C251.694 104.776 251.56 105.099 251.282 105.21L244.879 107.827C244.813 107.861 244.735 107.872 244.668 107.872Z" fill="white"/>
<path d="M194.205 86.5443C194.15 86.5443 194.083 86.5443 194.027 86.5109C193.737 86.4107 193.582 86.0989 193.671 85.8093L195.385 80.6751C195.486 80.3855 195.797 80.2296 196.087 80.3187C196.376 80.4189 196.532 80.7308 196.443 81.0204L194.728 86.1545C194.651 86.3884 194.428 86.5332 194.205 86.5332V86.5443Z" fill="white"/>
<path d="M61.5528 309.377C61.4192 309.377 61.2744 309.332 61.1742 309.232C60.9515 309.02 60.9404 308.664 61.1519 308.441C112.249 253.87 98.2638 161.565 98.119 160.641C98.0745 160.34 98.2749 160.051 98.5756 160.006C98.8873 159.962 99.1657 160.162 99.2103 160.474C99.2437 160.708 102.885 184.107 100.112 213.965C97.5512 241.552 88.8661 280.465 61.9536 309.199C61.8423 309.321 61.6976 309.377 61.5528 309.377Z" fill="#29153D"/>
</svg>
