<svg width="1440" height="565" viewBox="0 0 1440 565" fill="none" xmlns="http://www.w3.org/2000/svg">
<path fill-rule="evenodd" clip-rule="evenodd" d="M216.035 117.396C224.064 100.288 241.327 88.4429 261.314 88.4429C283.604 88.4429 302.51 103.175 308.991 123.51C311.999 122.889 315.14 122.562 318.37 122.562C336.48 122.562 351.829 132.876 356.996 147.078C360.605 146.103 364.45 145.578 368.435 145.578C389.284 145.578 406.209 159.968 406.209 177.696C406.209 183.211 404.569 188.402 401.687 192.939C428.01 195.498 496.044 199.347 502.071 201.183C509.413 203.423 439.124 205.259 416.212 206.95C411.398 207.304 406.209 210.092 406.209 211.926C406.209 230.818 383.237 246.156 354.945 246.156C343.596 246.156 333.105 243.688 324.607 239.512C317.725 248.571 305.648 254.584 291.916 254.584C279.258 254.584 268.007 249.476 260.933 241.584C253.178 247.023 242.301 250.403 230.268 250.403C216.283 250.403 203.859 245.833 196.081 238.781C187.616 243.309 175.372 246.158 161.764 246.158C136.415 246.158 115.803 236.278 115.522 224.057C106.853 223.026 95.3641 221.794 79.8967 221.575C46.2734 221.096 -17.6861 220.398 -21.9427 218.009C-26.184 215.629 14.1061 209.715 68.8022 206.468C67.2364 204.507 66.3483 202.275 66.3483 199.904C66.3483 192.134 75.8813 185.828 87.6249 185.828C92.3772 185.828 96.7654 186.86 100.307 188.604C100.994 175.548 115.985 165.099 134.352 165.099C136.365 165.099 138.339 165.222 140.257 165.465C142.336 158.682 147.012 152.803 153.31 148.668C155.1 129.175 174.122 113.813 197.289 113.813C203.989 113.813 210.344 115.097 216.035 117.396Z" fill="#EFF2FF"/>
<path d="M216.035 117.396C224.064 100.288 241.327 88.4429 261.314 88.4429C283.604 88.4429 302.51 103.175 308.991 123.51C311.999 122.889 315.14 122.562 318.37 122.562C336.48 122.562 351.829 132.876 356.996 147.078C360.605 146.103 364.45 145.578 368.435 145.578C389.284 145.578 406.209 159.968 406.209 177.696C406.209 183.211 404.569 188.402 401.687 192.939C428.01 195.498 496.044 199.347 502.071 201.183C509.413 203.423 439.124 205.259 416.212 206.95C411.398 207.304 406.209 210.092 406.209 211.926C406.209 230.818 383.237 246.156 354.945 246.156C343.596 246.156 333.105 243.688 324.607 239.512C317.725 248.571 305.648 254.584 291.916 254.584C279.258 254.584 268.007 249.476 260.933 241.584C253.178 247.023 242.301 250.403 230.268 250.403C216.283 250.403 203.859 245.833 196.081 238.781C187.616 243.309 175.372 246.158 161.764 246.158C136.415 246.158 115.803 236.278 115.522 224.057C106.853 223.026 95.3641 221.794 79.8967 221.575C46.2734 221.096 -17.6861 220.398 -21.9427 218.009C-26.184 215.629 14.1061 209.715 68.8022 206.468C67.2364 204.507 66.3483 202.275 66.3483 199.904C66.3483 192.134 75.8813 185.828 87.6249 185.828C92.3772 185.828 96.7654 186.86 100.307 188.604C100.994 175.548 115.985 165.099 134.352 165.099C136.365 165.099 138.339 165.222 140.257 165.465C142.336 158.682 147.012 152.803 153.31 148.668C155.1 129.175 174.122 113.813 197.289 113.813C203.989 113.813 210.344 115.097 216.035 117.396Z" fill="#EFF2FF"/>
<mask id="mask0_122_4508" style="mask-type:luminance" maskUnits="userSpaceOnUse" x="-23" y="88" width="526" height="167">
<path d="M216.035 117.396C224.064 100.288 241.327 88.4429 261.314 88.4429C283.604 88.4429 302.51 103.175 308.991 123.51C311.999 122.889 315.14 122.562 318.37 122.562C336.48 122.562 351.829 132.876 356.996 147.078C360.605 146.103 364.45 145.578 368.435 145.578C389.284 145.578 406.209 159.968 406.209 177.696C406.209 183.211 404.569 188.402 401.687 192.939C428.01 195.498 496.044 199.347 502.071 201.183C509.413 203.423 439.124 205.259 416.212 206.95C411.398 207.304 406.209 210.092 406.209 211.926C406.209 230.818 383.237 246.156 354.945 246.156C343.596 246.156 333.105 243.688 324.607 239.512C317.725 248.571 305.648 254.584 291.916 254.584C279.258 254.584 268.007 249.476 260.933 241.584C253.178 247.023 242.301 250.403 230.268 250.403C216.283 250.403 203.859 245.833 196.081 238.781C187.616 243.309 175.372 246.158 161.764 246.158C136.415 246.158 115.803 236.278 115.522 224.057C106.853 223.026 95.3641 221.794 79.8967 221.575C46.2734 221.096 -17.6861 220.398 -21.9427 218.009C-26.184 215.629 14.1061 209.715 68.8022 206.468C67.2364 204.507 66.3483 202.275 66.3483 199.904C66.3483 192.134 75.8813 185.828 87.6249 185.828C92.3772 185.828 96.7654 186.86 100.307 188.604C100.994 175.548 115.985 165.099 134.352 165.099C136.365 165.099 138.339 165.222 140.257 165.465C142.336 158.682 147.012 152.803 153.31 148.668C155.1 129.175 174.122 113.813 197.289 113.813C203.989 113.813 210.344 115.097 216.035 117.396Z" fill="white"/>
</mask>
<g mask="url(#mask0_122_4508)">
<path fill-rule="evenodd" clip-rule="evenodd" d="M211.307 101.67C219.333 84.5622 236.599 72.7168 256.586 72.7168C278.874 72.7168 297.78 87.4486 304.26 107.784C307.269 107.163 310.412 106.836 313.642 106.836C331.752 106.836 347.101 117.15 352.268 131.352C355.877 130.377 359.722 129.852 363.707 129.852C384.556 129.852 407.098 140.501 407.098 158.225C407.098 163.74 413.593 170.281 410.71 174.818C437.03 177.377 506.422 199.264 512.45 201.102C519.793 203.342 435.17 197.999 412.26 199.689C407.446 200.043 402.258 202.831 402.258 204.665C402.258 223.557 378.514 230.43 350.219 230.43C338.871 230.43 328.379 227.962 319.881 223.786C313 232.845 300.923 238.857 287.188 238.857C274.53 238.857 263.279 233.75 256.205 225.857C248.448 231.295 237.573 234.679 225.54 234.679C211.555 234.679 199.131 230.109 191.353 223.054C182.888 227.583 170.644 230.432 157.036 230.432C131.687 230.432 111.075 220.552 110.794 208.331C106.386 216.317 99.1077 215.89 83.6425 215.627C72.4143 215.435 -28.162 218.188 -32.4209 215.798C-36.6622 213.418 9.37811 193.989 64.072 190.742C62.5062 188.783 61.618 186.549 61.618 184.177C61.618 176.408 71.1511 170.102 82.8947 170.102C87.6448 170.102 92.0352 171.134 95.577 172.878C96.2634 159.822 111.255 149.37 129.621 149.37C131.635 149.37 133.608 149.496 135.527 149.739C137.606 142.956 142.282 137.077 148.58 132.942C150.372 113.449 169.392 98.0874 192.559 98.0874C199.263 98.0853 205.614 99.3691 211.307 101.67Z" fill="#EFF2FF"/>
</g>
<path fill-rule="evenodd" clip-rule="evenodd" d="M180.497 198.493C178.076 209.129 184.495 220.17 195.833 224.011C206.785 227.721 218.658 223.465 224.143 214.433C223.937 215.333 223.669 216.23 223.336 217.117C219.059 228.519 205.605 234.392 193.311 230.226C181.015 226.062 174.504 213.425 178.78 202.025C179.247 200.779 179.824 199.601 180.497 198.493Z" fill="#EFF2FF"/>
<path fill-rule="evenodd" clip-rule="evenodd" d="M105 191.557C102.976 200.787 109.009 210.507 119.399 214.027C129.437 217.426 140.178 213.902 145.02 206.112C144.849 206.893 144.621 207.671 144.332 208.44C140.63 218.307 128.476 223.221 117.206 219.404C105.938 215.588 99.7936 204.476 103.495 194.608C103.901 193.531 104.408 192.514 105 191.557Z" fill="#EFF2FF"/>
<path fill-rule="evenodd" clip-rule="evenodd" d="M224.142 149.825C216.73 141.531 203.602 139.657 193.499 145.872C183.738 151.876 180.071 163.421 184.28 173.051C183.655 172.349 183.069 171.603 182.527 170.811C175.606 160.651 178.883 146.93 189.843 140.188C200.8 133.449 215.315 136.223 222.234 146.382C222.991 147.493 223.625 148.643 224.142 149.825Z" fill="#EFF2FF"/>
<path fill-rule="evenodd" clip-rule="evenodd" d="M253.215 204.163C250.796 214.798 257.213 225.839 268.551 229.68C279.503 233.389 291.374 229.134 296.859 220.102C296.655 221.002 296.387 221.898 296.052 222.786C291.775 234.187 278.323 240.06 266.027 235.894C253.731 231.73 247.22 219.093 251.496 207.693C251.965 206.449 252.542 205.27 253.215 204.163Z" fill="#EFF2FF"/>
<path fill-rule="evenodd" clip-rule="evenodd" d="M278.133 164.14C284.876 155.346 283.71 142.779 274.979 134.906C266.545 127.301 253.876 126.626 245.012 132.774C245.582 132.03 246.209 131.313 246.893 130.63C255.659 121.85 270.464 121.656 279.931 130.192C289.401 138.73 289.969 152.791 281.203 161.571C280.247 162.529 279.218 163.386 278.133 164.14Z" fill="#EFF2FF"/>
<path fill-rule="evenodd" clip-rule="evenodd" d="M344.447 198.12C352.042 187.833 350.408 173.329 340.136 164.388C330.21 155.746 315.548 155.196 305.442 162.463C306.083 161.594 306.791 160.754 307.567 159.949C317.502 149.644 334.614 149.152 345.754 158.851C356.895 168.55 357.875 184.791 347.941 195.096C346.858 196.221 345.687 197.23 344.447 198.12Z" fill="#EFF2FF"/>
<path fill-rule="evenodd" clip-rule="evenodd" d="M116.948 448.685C119.089 436.217 132.933 426.584 149.673 426.584C167.015 426.584 181.254 436.927 182.581 450.052C187.298 450.84 191.037 453.837 192.11 457.659C193.566 457.198 195.132 456.95 196.766 456.95C199.603 456.95 202.239 457.705 204.437 458.999C208.555 455.54 214.014 453.435 219.994 453.435C230.426 453.435 239.262 459.841 242.19 468.652C244.597 467.91 247.187 467.506 249.885 467.506C261.705 467.506 271.486 475.265 273.006 485.307C281.517 486.008 288.116 490.934 288.116 496.901C288.116 498.009 287.888 499.083 287.462 500.1C287.528 500.098 287.592 500.098 287.657 500.098C291.164 500.098 294.008 502.442 294.008 505.33C294.008 506.139 293.785 506.906 293.386 507.59C320.814 509.765 354.514 511.703 358.108 512.12C364.233 512.829 -98.2549 511.197 -98.2549 511.197C-98.2549 511.197 -69.4364 509.448 -52.6642 507.521C-40.6793 506.143 -43.8307 504.322 -42.8811 502.054C-41.5807 498.945 -36.4205 496.619 -30.2581 496.619C-28.212 496.619 -26.2778 496.876 -24.5584 497.332C-24.0913 490.601 -15.2644 485.224 -4.46162 485.224C0.472672 485.224 4.99469 486.345 8.49694 488.204C9.30397 482.659 14.9861 478.249 22.1419 477.609C24.1025 468.244 33.2342 461.152 44.1905 461.152C48.4209 461.152 52.3771 462.208 55.7565 464.046C59 457.069 67.7896 452.059 78.11 452.059C83.6561 452.059 88.7571 453.506 92.7966 455.925C96.0993 450.794 102.321 447.333 109.446 447.333C112.108 447.329 114.643 447.812 116.948 448.685Z" fill="#EFF2FF"/>
<path d="M116.948 448.685C119.089 436.217 132.933 426.584 149.673 426.584C167.015 426.584 181.254 436.927 182.581 450.052C187.298 450.84 191.037 453.837 192.11 457.659C193.566 457.198 195.132 456.95 196.766 456.95C199.603 456.95 202.239 457.705 204.437 458.999C208.555 455.54 214.014 453.435 219.994 453.435C230.426 453.435 239.262 459.841 242.19 468.652C244.597 467.91 247.187 467.506 249.885 467.506C261.705 467.506 271.486 475.265 273.006 485.307C281.517 486.008 288.116 490.934 288.116 496.901C288.116 498.009 287.888 499.083 287.462 500.1C287.528 500.098 287.592 500.098 287.657 500.098C291.164 500.098 294.008 502.442 294.008 505.33C294.008 506.139 293.785 506.906 293.386 507.59C320.814 509.765 354.514 511.703 358.108 512.12C364.233 512.829 -98.2549 511.197 -98.2549 511.197C-98.2549 511.197 -69.4364 509.448 -52.6642 507.521C-40.6793 506.143 -43.8307 504.322 -42.8811 502.054C-41.5807 498.945 -36.4205 496.619 -30.2581 496.619C-28.212 496.619 -26.2778 496.876 -24.5584 497.332C-24.0913 490.601 -15.2644 485.224 -4.46162 485.224C0.472672 485.224 4.99469 486.345 8.49694 488.204C9.30397 482.659 14.9861 478.249 22.1419 477.609C24.1025 468.244 33.2342 461.152 44.1905 461.152C48.4209 461.152 52.3771 462.208 55.7565 464.046C59 457.069 67.7896 452.059 78.11 452.059C83.6561 452.059 88.7571 453.506 92.7966 455.925C96.0993 450.794 102.321 447.333 109.446 447.333C112.108 447.329 114.643 447.812 116.948 448.685Z" fill="#EFF2FF"/>
<mask id="mask1_122_4508" style="mask-type:luminance" maskUnits="userSpaceOnUse" x="-99" y="426" width="458" height="87">
<path d="M116.948 448.685C119.089 436.217 132.933 426.584 149.673 426.584C167.015 426.584 181.254 436.927 182.581 450.052C187.298 450.84 191.037 453.837 192.11 457.659C193.566 457.198 195.132 456.95 196.766 456.95C199.603 456.95 202.239 457.705 204.437 458.999C208.555 455.54 214.014 453.435 219.994 453.435C230.426 453.435 239.262 459.841 242.19 468.652C244.597 467.91 247.187 467.506 249.885 467.506C261.705 467.506 271.486 475.265 273.006 485.307C281.517 486.008 288.116 490.934 288.116 496.901C288.116 498.009 287.888 499.083 287.462 500.1C287.528 500.098 287.592 500.098 287.657 500.098C291.164 500.098 294.008 502.442 294.008 505.33C294.008 506.139 293.785 506.906 293.386 507.59C320.814 509.765 354.514 511.703 358.108 512.12C364.233 512.829 -98.2549 511.197 -98.2549 511.197C-98.2549 511.197 -69.4364 509.448 -52.6642 507.521C-40.6793 506.143 -43.8307 504.322 -42.8811 502.054C-41.5807 498.945 -36.4205 496.619 -30.2581 496.619C-28.212 496.619 -26.2778 496.876 -24.5584 497.332C-24.0913 490.601 -15.2644 485.224 -4.46162 485.224C0.472672 485.224 4.99469 486.345 8.49694 488.204C9.30397 482.659 14.9861 478.249 22.1419 477.609C24.1025 468.244 33.2342 461.152 44.1905 461.152C48.4209 461.152 52.3771 462.208 55.7565 464.046C59 457.069 67.7896 452.059 78.11 452.059C83.6561 452.059 88.7571 453.506 92.7966 455.925C96.0993 450.794 102.321 447.333 109.446 447.333C112.108 447.329 114.643 447.812 116.948 448.685Z" fill="white"/>
</mask>
<g mask="url(#mask1_122_4508)">
<path fill-rule="evenodd" clip-rule="evenodd" d="M56.4127 502.29C55.7921 504.355 52.8512 505.872 50.9258 506.483C45.2195 508.29 38.2545 507.608 33.0395 504.733C31.2873 503.766 28.3706 500.244 26.1446 500.571C23.9121 500.896 22.2235 503.54 20.6095 504.801C17.7256 507.052 14.3835 508.455 10.6466 508.761C5.87455 509.153 1.37448 507.74 -2.62339 505.326C-4.23746 504.353 -6.73969 501.461 -8.75288 501.419C-9.98756 501.392 -11.2135 503.074 -11.9393 503.816C-13.4306 505.341 -15.3692 506.825 -17.5469 507.333C-21.6544 508.29 -26.5163 507.365 -30.4682 506.183C-31.9178 505.75 -33.352 504.924 -34.8564 504.71C-36.8477 504.428 -38.4179 506.919 -40.3521 507.331C-46.4136 508.628 -52.9137 505.006 -55.5673 499.923C-59.5564 492.279 -51.0321 486.798 -45.3588 482.715C-36.9902 476.69 -27.6172 473.869 -17.3408 472.345C-9.84501 471.234 -2.11461 471.655 4.6355 467.927C27.0219 458.468 42.0857 440.516 64.1935 430.371C95.1107 416.185 128.984 415.621 162.507 417.896C184.404 419.382 206.06 421.91 225.887 431.499C236.896 436.821 247.567 444.84 255.502 453.875C262.71 462.081 267.833 474.502 277.215 480.775C278.809 481.784 279.827 484.364 280.265 485.985C281.84 491.789 279.932 497.276 274.647 500.652C271.063 502.942 266.416 503.807 262.214 502.844C259.809 502.294 257.092 500.377 254.539 500.854C252.252 501.281 250.445 503.307 248.515 504.414C244.49 506.721 239.876 508.563 235.126 508.698C228.054 508.901 220.551 506.558 214.448 503.286C212.361 502.167 210.363 500.977 208.608 499.416C207.845 498.737 206.744 497.399 205.578 497.399C203.301 497.399 200.233 501.59 198.424 502.701C194.553 505.076 189.669 506.173 185.132 506.516C177.546 507.092 169.741 505.675 162.873 502.571C160.59 501.54 158.362 500.392 156.243 499.085C155.208 498.447 153.796 497.097 152.476 497.076C149.892 497.034 147.081 501.496 145.506 502.992C142.44 505.908 138.55 507.517 134.263 507.973C128.638 508.573 123.291 507.288 117.745 506.808C110.762 506.206 104.137 507.104 97.5691 504.039C94.6085 502.657 92.1107 500.435 89.9045 498.13C88.99 497.176 87.6237 494.838 86.2158 494.471C85.275 494.225 84.9856 496.655 84.8649 497.103C84.1369 499.789 83.2684 502.94 80.5885 504.47C73.6718 508.413 63.2483 505.764 56.7548 502.205" fill="#EFF2FF"/>
</g>
<path fill-rule="evenodd" clip-rule="evenodd" d="M195.239 471.011C193.709 482.275 201.658 493.32 214.15 496.501C226.218 499.575 238.481 494.275 243.444 484.461C243.315 485.414 243.117 486.368 242.85 487.319C239.411 499.514 225.619 506.614 212.073 503.165C198.525 499.716 190.316 487.014 193.755 474.819C194.132 473.487 194.63 472.216 195.239 471.011Z" fill="#EFF2FF"/>
<path fill-rule="evenodd" clip-rule="evenodd" d="M79.2589 473.762C77.7282 485.026 85.6801 496.071 98.1715 499.252C110.24 502.326 122.501 497.026 127.466 487.212C127.336 488.165 127.139 489.119 126.872 490.07C123.433 502.265 109.643 509.365 96.0947 505.916C82.5463 502.467 74.34 489.765 77.7764 477.57C78.1514 476.236 78.6515 474.965 79.2589 473.762Z" fill="#EFF2FF"/>
<path fill-rule="evenodd" clip-rule="evenodd" d="M125.494 501.192C134.04 505.589 145.187 503.086 151.381 495.008C157.363 487.204 156.716 476.811 150.332 470.361C151.054 470.732 151.76 471.153 152.44 471.626C161.172 477.672 162.811 489.694 156.093 498.455C149.376 507.216 136.832 509.421 128.099 503.376C127.148 502.713 126.277 501.981 125.494 501.192Z" fill="#EFF2FF"/>
<path fill-rule="evenodd" clip-rule="evenodd" d="M22.9054 482.492C22.9866 491.728 30.6819 499.789 41.1163 501.036C51.1976 502.24 60.4587 496.678 63.314 488.248C63.3206 489.03 63.2723 489.82 63.1671 490.614C61.8206 500.802 51.5375 507.975 40.2193 506.625C28.9011 505.272 20.8067 495.905 22.1532 485.716C22.3001 484.601 22.5545 483.524 22.9054 482.492Z" fill="#EFF2FF"/>
<path fill-rule="evenodd" clip-rule="evenodd" d="M1342.6 409.335C1347.81 378.944 1381.56 355.464 1422.37 355.464C1464.64 355.464 1499.35 380.678 1502.58 412.67C1514.08 414.591 1523.19 421.893 1525.81 431.211C1529.36 430.092 1533.18 429.481 1537.16 429.481C1544.07 429.481 1550.5 431.321 1555.86 434.475C1565.9 426.045 1579.2 420.91 1593.77 420.91C1619.21 420.91 1640.74 436.529 1647.88 458.003C1653.75 456.194 1660.07 455.21 1666.64 455.21C1695.45 455.21 1719.29 474.121 1723 498.601C1743.74 500.306 1759.83 512.316 1759.83 526.86C1759.83 529.563 1759.27 532.181 1758.24 534.659C1758.39 534.655 1758.55 534.652 1758.71 534.652C1767.26 534.652 1774.19 540.369 1774.19 547.407C1774.19 549.378 1773.65 551.245 1772.68 552.915C1839.54 558.218 1921.69 562.943 1930.45 563.956C1945.38 565.683 818.012 561.707 818.012 561.707C818.012 561.707 888.259 557.445 929.145 552.746C958.361 549.388 950.681 544.952 952.992 539.419C956.161 531.837 968.742 526.168 983.76 526.168C988.745 526.168 993.462 526.794 997.655 527.904C998.793 511.495 1020.31 498.391 1046.64 498.391C1058.67 498.391 1069.7 501.125 1078.23 505.658C1080.2 492.137 1094.05 481.39 1111.49 479.831C1116.27 457.003 1138.53 439.712 1165.24 439.712C1175.55 439.712 1185.2 442.287 1193.43 446.766C1201.34 429.756 1222.76 417.546 1247.92 417.546C1261.44 417.546 1273.88 421.07 1283.72 426.97C1291.77 414.462 1306.94 406.026 1324.31 406.026C1330.8 406.032 1336.98 407.21 1342.6 409.335Z" fill="#EFF2FF"/>
<path d="M1342.6 409.335C1347.81 378.944 1381.56 355.464 1422.37 355.464C1464.64 355.464 1499.35 380.678 1502.58 412.67C1514.08 414.591 1523.19 421.893 1525.81 431.211C1529.36 430.092 1533.18 429.481 1537.16 429.481C1544.07 429.481 1550.5 431.321 1555.86 434.475C1565.9 426.045 1579.2 420.91 1593.77 420.91C1619.21 420.91 1640.74 436.529 1647.88 458.003C1653.75 456.194 1660.07 455.21 1666.64 455.21C1695.45 455.21 1719.29 474.121 1723 498.601C1743.74 500.306 1759.83 512.316 1759.83 526.86C1759.83 529.563 1759.27 532.181 1758.24 534.659C1758.39 534.655 1758.55 534.652 1758.71 534.652C1767.26 534.652 1774.19 540.369 1774.19 547.407C1774.19 549.378 1773.65 551.245 1772.68 552.915C1839.54 558.218 1921.69 562.943 1930.45 563.956C1945.38 565.683 818.012 561.707 818.012 561.707C818.012 561.707 888.259 557.445 929.145 552.746C958.361 549.388 950.681 544.952 952.992 539.419C956.161 531.837 968.742 526.168 983.76 526.168C988.745 526.168 993.462 526.794 997.655 527.904C998.793 511.495 1020.31 498.391 1046.64 498.391C1058.67 498.391 1069.7 501.125 1078.23 505.658C1080.2 492.137 1094.05 481.39 1111.49 479.831C1116.27 457.003 1138.53 439.712 1165.24 439.712C1175.55 439.712 1185.2 442.287 1193.43 446.766C1201.34 429.756 1222.76 417.546 1247.92 417.546C1261.44 417.546 1273.88 421.07 1283.72 426.97C1291.77 414.462 1306.94 406.026 1324.31 406.026C1330.8 406.032 1336.98 407.21 1342.6 409.335Z" fill="#EFF2FF"/>
<mask id="mask2_122_4508" style="mask-type:luminance" maskUnits="userSpaceOnUse" x="818" y="355" width="1113" height="210">
<path d="M1342.6 409.335C1347.81 378.944 1381.56 355.464 1422.37 355.464C1464.64 355.464 1499.35 380.678 1502.58 412.67C1514.08 414.591 1523.19 421.893 1525.81 431.211C1529.36 430.092 1533.18 429.481 1537.16 429.481C1544.07 429.481 1550.5 431.321 1555.86 434.475C1565.9 426.045 1579.2 420.91 1593.77 420.91C1619.21 420.91 1640.74 436.529 1647.88 458.003C1653.75 456.194 1660.07 455.21 1666.64 455.21C1695.45 455.21 1719.29 474.121 1723 498.601C1743.74 500.306 1759.83 512.316 1759.83 526.86C1759.83 529.563 1759.27 532.181 1758.24 534.659C1758.39 534.655 1758.55 534.652 1758.71 534.652C1767.26 534.652 1774.19 540.369 1774.19 547.407C1774.19 549.378 1773.65 551.245 1772.68 552.915C1839.54 558.218 1921.69 562.943 1930.45 563.956C1945.38 565.683 818.012 561.707 818.012 561.707C818.012 561.707 888.259 557.445 929.145 552.746C958.361 549.388 950.681 544.952 952.992 539.419C956.161 531.837 968.742 526.168 983.76 526.168C988.745 526.168 993.462 526.794 997.655 527.904C998.793 511.495 1020.31 498.391 1046.64 498.391C1058.67 498.391 1069.7 501.125 1078.23 505.658C1080.2 492.137 1094.05 481.39 1111.49 479.831C1116.27 457.003 1138.53 439.712 1165.24 439.712C1175.55 439.712 1185.2 442.287 1193.43 446.766C1201.34 429.756 1222.76 417.546 1247.92 417.546C1261.44 417.546 1273.88 421.07 1283.72 426.97C1291.77 414.462 1306.94 406.026 1324.31 406.026C1330.8 406.032 1336.98 407.21 1342.6 409.335Z" fill="white"/>
</mask>
<g mask="url(#mask2_122_4508)">
<path fill-rule="evenodd" clip-rule="evenodd" d="M1195.04 540.002C1193.53 545.039 1186.36 548.736 1181.66 550.224C1167.75 554.63 1150.77 552.969 1138.06 545.956C1133.79 543.599 1126.68 535.015 1121.25 535.809C1115.81 536.605 1111.69 543.049 1107.76 546.123C1100.73 551.612 1092.58 555.025 1083.47 555.776C1071.84 556.734 1060.87 553.285 1051.12 547.404C1047.19 545.031 1041.09 537.983 1036.18 537.88C1033.18 537.816 1030.19 541.913 1028.42 543.724C1024.78 547.44 1020.05 551.06 1014.75 552.298C1004.74 554.632 992.888 552.375 983.254 549.495C979.721 548.438 976.227 546.425 972.556 545.904C967.703 545.216 963.872 551.289 959.159 552.298C944.385 555.457 928.54 546.627 922.073 534.236C912.349 515.602 933.126 502.244 946.959 492.287C967.361 477.603 990.206 470.721 1015.25 467.008C1033.53 464.299 1052.37 465.326 1068.82 456.238C1123.4 433.189 1160.12 389.427 1214.01 364.698C1289.37 330.116 1371.94 328.743 1453.66 334.29C1507.03 337.914 1559.82 344.077 1608.15 367.447C1634.99 380.42 1661 399.968 1680.34 421.987C1697.92 441.991 1710.4 472.268 1733.27 487.56C1737.16 490.019 1739.64 496.307 1740.71 500.26C1744.55 514.408 1739.9 527.781 1727.02 536.015C1718.28 541.6 1706.96 543.703 1696.71 541.359C1690.85 540.017 1684.22 535.346 1678 536.507C1672.43 537.547 1668.02 542.484 1663.32 545.183C1653.51 550.807 1642.27 555.294 1630.68 555.626C1613.44 556.12 1595.16 550.407 1580.28 542.432C1575.19 539.704 1570.32 536.805 1566.04 532.996C1564.18 531.339 1561.5 528.075 1558.66 528.075C1553.11 528.075 1545.63 538.293 1541.22 541C1531.79 546.792 1519.88 549.463 1508.82 550.301C1490.33 551.704 1471.3 548.248 1454.56 540.686C1448.99 538.172 1443.56 535.373 1438.4 532.189C1435.88 530.634 1432.43 527.344 1429.22 527.292C1422.92 527.187 1416.07 538.068 1412.23 541.715C1404.75 548.821 1395.27 552.741 1384.82 553.856C1371.1 555.321 1358.07 552.185 1344.55 551.016C1327.53 549.545 1311.38 551.737 1295.38 544.264C1288.16 540.894 1282.07 535.48 1276.69 529.863C1274.47 527.538 1271.14 521.838 1267.7 520.942C1265.41 520.341 1264.71 526.266 1264.41 527.358C1262.63 533.908 1260.52 541.588 1253.99 545.314C1237.13 554.928 1211.72 548.467 1195.89 539.791" fill="#EFF2FF"/>
</g>
<path fill-rule="evenodd" clip-rule="evenodd" d="M1250.73 470.463C1247 497.918 1266.38 524.843 1296.83 532.596C1326.25 540.086 1356.14 527.171 1368.24 503.247C1367.92 505.568 1367.44 507.894 1366.79 510.211C1358.41 539.94 1324.79 557.247 1291.76 548.838C1258.74 540.429 1238.73 509.467 1247.11 479.739C1248.03 476.494 1249.25 473.398 1250.73 470.463Z" fill="#EFF2FF"/>
<path fill-rule="evenodd" clip-rule="evenodd" d="M1363.43 537.328C1384.27 548.048 1411.44 541.944 1426.54 522.255C1441.12 503.23 1439.54 477.897 1423.98 462.173C1425.74 463.079 1427.46 464.105 1429.12 465.255C1450.41 479.993 1454.4 509.298 1438.02 530.657C1421.65 552.014 1391.07 557.389 1369.78 542.649C1367.46 541.038 1365.34 539.256 1363.43 537.328Z" fill="#EFF2FF"/>
<path fill-rule="evenodd" clip-rule="evenodd" d="M1113.36 491.743C1113.55 514.257 1132.31 533.907 1157.75 536.945C1182.33 539.879 1204.9 526.323 1211.86 505.773C1211.87 507.675 1211.76 509.601 1211.5 511.537C1208.22 536.372 1183.15 553.859 1155.56 550.566C1127.97 547.271 1108.24 524.433 1111.53 499.6C1111.88 496.886 1112.5 494.263 1113.36 491.743Z" fill="#EFF2FF"/>
<path fill-rule="evenodd" clip-rule="evenodd" d="M1296.49 91.7148C1303.1 83.4434 1314.32 78 1327.02 78C1344.97 78 1359.93 88.8597 1363.17 103.208C1379.85 105.976 1392.41 117.973 1392.41 132.334C1392.41 133.953 1392.25 135.543 1391.94 137.092C1399.68 143.227 1404.55 152.145 1404.55 162.062C1404.55 176.473 1394.27 188.773 1379.85 193.493C1379.91 194.175 1379.93 194.862 1379.93 195.556C1379.93 212.714 1363.16 226.648 1342.49 226.648C1333.26 226.648 1324.81 223.865 1318.27 219.26C1314.11 220.519 1309.67 221.2 1305.05 221.2C1297.7 221.2 1290.78 219.47 1284.76 216.43C1276.53 222.761 1265.41 226.65 1253.16 226.65C1238.44 226.65 1225.33 221.027 1216.94 212.301C1209.93 217.718 1199.05 221.2 1186.84 221.2C1177.5 221.2 1168.93 219.162 1162.28 215.779C1156.89 219.135 1149.55 221.2 1141.47 221.2C1125.37 221.2 1112.22 212.993 1111.49 202.709C1071.81 202.169 1033.96 201.808 1020.98 201.171C1020.84 201.164 1091.48 191.318 1098.15 186.012C1098.32 185.876 1098.49 185.73 1098.65 185.576C1097.55 183.492 1096.95 181.208 1096.95 178.811C1096.95 169.037 1107 161.104 1119.38 161.104C1125.26 161.104 1130.62 162.896 1134.62 165.828C1139.1 160.704 1147.33 157.265 1156.73 157.265C1162.23 157.265 1167.32 158.438 1171.5 160.437C1171.94 147.199 1185.32 136.565 1201.74 136.565C1203.74 136.565 1205.69 136.721 1207.58 137.021C1207.42 136.016 1207.33 134.987 1207.33 133.945C1207.33 121.076 1219.94 110.627 1235.48 110.627C1238.79 110.627 1241.96 111.102 1244.91 111.971C1245.76 107.334 1247.98 103.064 1251.21 99.4485C1253.46 96.4476 1256.5 93.7717 1260.62 92.2087C1265.95 89.4266 1272.27 87.8156 1279.05 87.8156C1285.41 87.8156 1291.37 89.2369 1296.49 91.7148Z" fill="#EFF2FF"/>
<path d="M1296.49 91.7148C1303.1 83.4434 1314.32 78 1327.02 78C1344.97 78 1359.93 88.8597 1363.17 103.208C1379.85 105.976 1392.41 117.973 1392.41 132.334C1392.41 133.953 1392.25 135.543 1391.94 137.092C1399.68 143.227 1404.55 152.145 1404.55 162.062C1404.55 176.473 1394.27 188.773 1379.85 193.493C1379.91 194.175 1379.93 194.862 1379.93 195.556C1379.93 212.714 1363.16 226.648 1342.49 226.648C1333.26 226.648 1324.81 223.865 1318.27 219.26C1314.11 220.519 1309.67 221.2 1305.05 221.2C1297.7 221.2 1290.78 219.47 1284.76 216.43C1276.53 222.761 1265.41 226.65 1253.16 226.65C1238.44 226.65 1225.33 221.027 1216.94 212.301C1209.93 217.718 1199.05 221.2 1186.84 221.2C1177.5 221.2 1168.93 219.162 1162.28 215.779C1156.89 219.135 1149.55 221.2 1141.47 221.2C1125.37 221.2 1112.22 212.993 1111.49 202.709C1071.81 202.169 1033.96 201.808 1020.98 201.171C1020.84 201.164 1091.48 191.318 1098.15 186.012C1098.32 185.876 1098.49 185.73 1098.65 185.576C1097.55 183.492 1096.95 181.208 1096.95 178.811C1096.95 169.037 1107 161.104 1119.38 161.104C1125.26 161.104 1130.62 162.896 1134.62 165.828C1139.1 160.704 1147.33 157.265 1156.73 157.265C1162.23 157.265 1167.32 158.438 1171.5 160.437C1171.94 147.199 1185.32 136.565 1201.74 136.565C1203.74 136.565 1205.69 136.721 1207.58 137.021C1207.42 136.016 1207.33 134.987 1207.33 133.945C1207.33 121.076 1219.94 110.627 1235.48 110.627C1238.79 110.627 1241.96 111.102 1244.91 111.971C1245.76 107.334 1247.98 103.064 1251.21 99.4485C1253.46 96.4476 1256.5 93.7717 1260.62 92.2087C1265.95 89.4266 1272.27 87.8156 1279.05 87.8156C1285.41 87.8156 1291.37 89.2369 1296.49 91.7148Z" fill="#EFF2FF"/>
<mask id="mask3_122_4508" style="mask-type:luminance" maskUnits="userSpaceOnUse" x="1020" y="78" width="385" height="149">
<path d="M1296.49 91.7148C1303.1 83.4434 1314.32 78 1327.02 78C1344.97 78 1359.93 88.8597 1363.17 103.208C1379.85 105.976 1392.41 117.973 1392.41 132.334C1392.41 133.953 1392.25 135.543 1391.94 137.092C1399.68 143.227 1404.55 152.145 1404.55 162.062C1404.55 176.473 1394.27 188.773 1379.85 193.493C1379.91 194.175 1379.93 194.862 1379.93 195.556C1379.93 212.714 1363.16 226.648 1342.49 226.648C1333.26 226.648 1324.81 223.865 1318.27 219.26C1314.11 220.519 1309.67 221.2 1305.05 221.2C1297.7 221.2 1290.78 219.47 1284.76 216.43C1276.53 222.761 1265.41 226.65 1253.16 226.65C1238.44 226.65 1225.33 221.027 1216.94 212.301C1209.93 217.718 1199.05 221.2 1186.84 221.2C1177.5 221.2 1168.93 219.162 1162.28 215.779C1156.89 219.135 1149.55 221.2 1141.47 221.2C1125.37 221.2 1112.22 212.993 1111.49 202.709C1071.81 202.169 1033.96 201.808 1020.98 201.171C1020.84 201.164 1091.48 191.318 1098.15 186.012C1098.32 185.876 1098.49 185.73 1098.65 185.576C1097.55 183.492 1096.95 181.208 1096.95 178.811C1096.95 169.037 1107 161.104 1119.38 161.104C1125.26 161.104 1130.62 162.896 1134.62 165.828C1139.1 160.704 1147.33 157.265 1156.73 157.265C1162.23 157.265 1167.32 158.438 1171.5 160.437C1171.94 147.199 1185.32 136.565 1201.74 136.565C1203.74 136.565 1205.69 136.721 1207.58 137.021C1207.42 136.016 1207.33 134.987 1207.33 133.945C1207.33 121.076 1219.94 110.627 1235.48 110.627C1238.79 110.627 1241.96 111.102 1244.91 111.971C1245.76 107.334 1247.98 103.064 1251.21 99.4485C1253.46 96.4476 1256.5 93.7717 1260.62 92.2087C1265.95 89.4266 1272.27 87.8156 1279.05 87.8156C1285.41 87.8156 1291.37 89.2369 1296.49 91.7148Z" fill="white"/>
</mask>
<g mask="url(#mask3_122_4508)">
<path fill-rule="evenodd" clip-rule="evenodd" d="M1293.04 77.4936C1299.65 69.2201 1310.86 63.7788 1323.57 63.7788C1341.51 63.7788 1356.48 74.6385 1359.71 88.9848C1376.39 91.7544 1388.96 103.75 1388.96 118.111C1388.96 119.73 1388.8 121.32 1388.49 122.871C1396.23 129.006 1401.1 137.923 1401.1 147.841C1401.1 162.252 1390.81 174.55 1376.4 179.27C1376.45 179.951 1376.48 180.641 1376.48 181.333C1376.48 198.493 1359.7 212.422 1339.04 212.422C1329.81 212.422 1321.35 209.642 1314.82 205.034C1310.66 206.293 1306.22 206.975 1301.6 206.975C1294.25 206.975 1287.33 205.245 1281.3 202.206C1273.08 208.538 1261.95 212.424 1249.71 212.424C1234.98 212.424 1221.88 206.804 1213.49 198.078C1206.48 203.492 1195.6 206.975 1183.38 206.975C1174.04 206.975 1165.48 204.939 1158.83 201.554C1153.43 204.911 1146.1 206.975 1138.02 206.975C1121.92 206.975 1116.94 202.354 1116.21 192.07C1079.26 196.707 1027.58 203.119 1014.59 202.479C1014.46 202.473 1088.03 177.092 1094.7 171.784C1094.87 171.649 1095.04 171.505 1095.19 171.351C1094.1 169.267 1093.5 166.981 1093.5 164.586C1093.5 154.812 1103.55 146.876 1115.93 146.876C1121.81 146.876 1127.17 148.668 1131.17 151.601C1135.64 146.478 1143.87 143.04 1153.28 143.04C1158.78 143.04 1163.87 144.211 1168.05 146.209C1168.48 132.974 1181.87 122.337 1198.29 122.337C1200.28 122.337 1202.24 122.496 1204.13 122.794C1203.96 121.789 1203.88 120.764 1203.88 119.722C1203.88 106.851 1216.49 96.4038 1232.03 96.4038C1235.33 96.4038 1238.51 96.8769 1241.46 97.748C1242.31 93.1111 1244.53 88.841 1247.75 85.2232C1250 82.2243 1253.05 79.5464 1257.17 77.9854C1262.5 75.2033 1268.82 73.5924 1275.59 73.5924C1281.95 73.5944 1287.91 75.0137 1293.04 77.4936Z" fill="#EFF2FF"/>
</g>
<path fill-rule="evenodd" clip-rule="evenodd" d="M1346.76 190.649C1351.64 183.686 1349.51 173.145 1341.42 166.105C1333.61 159.303 1322.86 158.049 1315.94 162.692C1316.36 162.102 1316.82 161.539 1317.33 161.006C1323.93 154.166 1336.4 154.81 1345.17 162.448C1353.94 170.082 1355.71 181.833 1349.12 188.675C1348.4 189.421 1347.61 190.08 1346.76 190.649Z" fill="#EFF2FF"/>
<path fill-rule="evenodd" clip-rule="evenodd" d="M1170.01 190.267C1177.6 200.556 1192.51 204.034 1204.86 197.903C1216.79 191.976 1222.33 179.063 1218.58 167.558C1219.22 168.429 1219.81 169.346 1220.34 170.313C1227.15 182.698 1221.81 198.155 1208.42 204.807C1195.03 211.459 1178.63 206.803 1171.82 194.418C1171.07 193.066 1170.47 191.678 1170.01 190.267Z" fill="#EFF2FF"/>
<path fill-rule="evenodd" clip-rule="evenodd" d="M1126.89 173.459C1118.7 176.081 1113.55 183.286 1115.19 190.357C1116.77 197.19 1124.15 201.612 1132.4 201.106C1131.71 201.327 1130.99 201.516 1130.26 201.668C1120.84 203.634 1111.76 199.003 1109.98 191.334C1108.21 183.663 1114.42 175.839 1123.83 173.874C1124.86 173.657 1125.88 173.522 1126.89 173.459Z" fill="#EFF2FF"/>
<path fill-rule="evenodd" clip-rule="evenodd" d="M1275.7 184.578C1274.34 193.312 1281 202.294 1291.57 205.332C1301.77 208.266 1312.19 204.667 1316.45 197.219C1316.34 197.957 1316.17 198.695 1315.93 199.426C1312.94 208.804 1301.22 213.743 1289.77 210.446C1278.31 207.152 1271.44 196.863 1274.42 187.487C1274.75 186.464 1275.18 185.493 1275.7 184.578Z" fill="#EFF2FF"/>
<path fill-rule="evenodd" clip-rule="evenodd" d="M1315.05 131.24C1318.79 120.957 1313.81 109.266 1303.04 104.162C1292.63 99.2337 1280.31 102.11 1273.73 110.454C1274.04 109.585 1274.42 108.726 1274.86 107.882C1280.55 97.0476 1294.64 92.7462 1306.32 98.2792C1318.01 103.81 1322.88 117.096 1317.2 127.93C1316.58 129.114 1315.86 130.219 1315.05 131.24Z" fill="#EFF2FF"/>
</svg>
