<svg width="183" height="221" viewBox="0 0 183 221" fill="none" xmlns="http://www.w3.org/2000/svg">
<path d="M114.785 53.8514C116.366 63.2733 124.896 70.0893 133.792 73.5418C142.689 77.0054 152.365 78.03 161.373 81.1707C170.392 84.3113 179.277 90.3921 182.161 99.7584C180.524 101.206 178.888 102.665 177.262 104.113C175.937 94.6688 167.263 87.8863 158.344 84.5452C149.414 81.2041 139.716 80.2574 130.864 76.7158C122.012 73.1742 113.594 65.9128 112.146 56.502C112.77 55.3437 113.783 54.386 114.796 53.8291L114.785 53.8514Z" fill="#DD403F"/>
<path d="M14.2392 71.6931C16.4995 77.8408 14.5844 84.7681 11.6114 90.5927C8.62733 96.4286 4.60772 101.73 2.25831 107.844C-0.848262 115.941 -0.748056 125.229 2.5478 133.259C5.84366 141.278 12.2906 147.96 20.1963 151.546C21.0536 149.786 21.9221 148.016 22.8018 146.267C14.7291 139.652 5.99956 131.755 5.4985 121.32C5.07538 112.666 10.5091 105.015 14.8516 97.52C19.1719 90.0136 22.5568 80.4691 18.6597 72.7734C17.5351 73.063 16.4105 73.3303 14.2392 71.6931Z" fill="#DD403F"/>
<path d="M77.0056 128.192C79.0766 145.833 89.5098 162.316 104.564 171.749C112.603 176.783 121.978 180.024 128.425 186.973C136.264 195.437 138.113 208.935 132.824 219.193C135.24 219.772 137.678 220.351 140.106 220.941C145.629 207.855 142.299 191.55 132.111 181.672C122.958 172.807 109.741 169.443 99.7203 161.581C89.5432 153.595 83.2187 140.91 82.9515 127.98C81.4038 128.058 79.856 128.147 76.9944 128.203L77.0056 128.192Z" fill="#DD403F"/>
<path d="M115.654 53.8069L82.7509 137.135L13.0479 72.3613L17.0898 61.781L40.5616 0.538208L102.448 44.4406L115.654 53.8069Z" fill="#934AF7"/>
<path d="M115.654 53.807L82.7509 137.135L13.0479 72.3614L17.0898 61.7811L72.6629 117.444L102.448 44.4407L115.654 53.807Z" fill="#FBB800"/>
<path d="M107.726 66.4808C107.948 66.1579 108.182 65.8794 108.427 65.6233C109.118 64.4316 109.841 63.2622 110.587 62.1151L42.833 16.531L22.167 73.9872C22.2895 74.0763 22.4231 74.1543 22.5233 74.2545C25.1734 76.4262 27.3669 78.8764 29.6273 81.3934L45.6166 32.7466L105.087 70.9134C105.9 69.3987 106.757 67.8952 107.715 66.4808H107.726Z" fill="#FBB800"/>
<path d="M13.0365 72.8848C13.0365 72.8848 13.0364 72.8848 13.0476 72.8848C48.2109 72.8737 82.7394 66.5923 115.665 54.219C115.932 54.1188 116.077 53.8181 115.976 53.5397C115.876 53.2724 115.564 53.1276 115.297 53.2278C82.4833 65.5566 48.0884 71.8045 13.0476 71.8268C12.7581 71.8268 12.5243 72.0606 12.5243 72.3502C12.5243 72.6398 12.7581 72.8736 13.0365 72.8736V72.8848Z" fill="#29153D"/>
<path d="M82.2946 136.199C82.3837 136.199 82.4839 136.177 82.573 136.132C82.8291 135.987 82.907 135.664 82.7623 135.408C61.7178 99.3019 47.6992 53.896 41.0964 0.460259C41.063 0.170695 40.8069 -0.0297769 40.5063 0.00363431C40.2168 0.0370456 40.0163 0.304334 40.0497 0.593898C46.6749 54.1744 60.7379 99.714 81.8604 135.943C81.9606 136.11 82.1276 136.199 82.3058 136.199H82.2946Z" fill="#29153D"/>
<path d="M65.236 101.34C65.4587 101.34 65.6703 101.206 65.7482 100.984C65.8373 100.705 65.6925 100.416 65.4142 100.315C53.4667 96.3171 42.4434 90.2362 32.6449 82.2509C33.647 79.5223 34.638 76.816 35.629 74.1431C39.9937 62.3044 43.8797 51.8356 47.5876 40.4312C47.6767 40.1528 47.5319 39.8632 47.2535 39.763C46.9752 39.6739 46.6857 39.8298 46.5966 40.0971C42.8999 51.4792 39.0139 61.9369 34.6491 73.7645C33.6247 76.5487 32.5892 79.3664 31.5425 82.2175L31.4201 82.5628L31.7096 82.7967C41.6751 90.9824 52.91 97.1969 65.1024 101.284C65.1581 101.307 65.2026 101.306 65.2583 101.306L65.236 101.34Z" fill="#29153D"/>
</svg>
