<svg width="259" height="268" viewBox="0 0 259 268" fill="none" xmlns="http://www.w3.org/2000/svg">
<path d="M132.669 168.33C132.625 184.156 143.693 199.414 158.758 204.27C164.659 206.185 170.939 206.586 176.963 208.112C182.987 209.615 189.066 212.545 192.217 217.879C198.152 227.925 191.26 240.989 194.066 252.315C196.749 263.14 209.498 270.257 220.099 266.637C220.522 262.773 220.978 258.908 221.401 255.044C217.115 257.873 210.924 255.556 208.006 251.324C205.078 247.114 204.655 241.668 204.788 236.512C204.933 231.366 205.501 226.143 204.198 221.176C201.593 211.208 192.039 204.559 182.363 201.04C172.687 197.521 162.254 196.184 152.834 192.008C143.403 187.843 134.618 179.746 132.68 168.33H132.669Z" fill="#FBB800"/>
<path d="M176.15 61.1917C183.165 68.8206 193.865 71.8944 204.154 73.1083C214.442 74.3334 224.953 74.0438 235.019 76.5051C245.085 78.9664 255.095 84.9025 258.892 94.5472C256.041 96.886 254.171 100.383 253.792 104.047C250.93 94.1017 241.02 87.7536 231.077 84.9248C221.134 82.096 210.601 81.8955 200.579 79.3117C190.558 76.7279 180.448 70.97 176.161 61.1917H176.15Z" fill="#DD403F"/>
<path d="M174.279 60.657C177.82 72.518 187.207 82.4634 198.82 86.6509C208.418 90.1034 219.119 89.8027 228.628 93.4891C240.141 97.9662 249.104 108.502 251.854 120.541C249.917 122.167 247.991 123.771 246.064 125.397C246.955 116.432 240.82 107.99 233.148 103.267C225.488 98.5453 216.435 96.7634 207.672 94.6808C198.909 92.6093 189.901 90.0477 183.087 84.1674C176.239 78.3093 172.186 68.2636 174.279 60.657Z" fill="#FBB800"/>
<path d="M28.0704 85.6597C12.6378 97.5541 3.80799 117.534 5.37798 136.935C5.66748 140.554 6.29102 144.218 5.78996 147.816C5.27776 151.413 3.35145 155.077 -8.05452e-05 156.48C3.05082 158.006 6.12401 159.532 9.17491 161.058C13.4061 156.77 14.8536 150.422 14.9093 144.397C14.9538 138.371 13.7958 132.402 13.5842 126.377C13.072 111.186 19.0959 95.8724 28.0815 85.6597H28.0704Z" fill="#DD403F"/>
<path d="M30.8761 86.2278C20.2202 99.9153 15.9333 118.347 19.4296 135.331C20.8549 142.247 23.4938 148.941 24.173 155.979C24.8411 163.018 23.0595 170.87 17.3809 175.057C20.1088 176.873 22.848 178.677 25.576 180.503C30.1968 173.776 30.5198 164.922 29.0723 156.87C27.6247 148.818 24.6407 141.122 23.1597 133.093C20.0866 116.554 23.7276 98.9018 30.8872 86.2278H30.8761Z" fill="#FBB800"/>
<path d="M177.553 59.0087L177.386 59.4542L135.175 176.472L23.8615 87.0965L24.0619 86.7178L39.0491 59.2983L70.3487 1.81982L140.252 39.0956L177.553 59.0087Z" fill="#FBB800"/>
<path d="M140.252 39.0956C134.05 53.8188 120.198 75.0795 91.2817 79.0666C65.7833 82.5859 48.8586 70.4576 39.0267 59.2983L70.3263 1.84204L140.252 39.1067V39.0956Z" fill="#934AF7"/>
<path d="M177.386 59.4542L135.175 176.46L23.8615 87.0853L24.0396 86.6955C34.6287 86.3502 49.7607 84.5572 49.7607 84.5572C52.0767 95.9504 78.7331 137.314 113.184 132.603C148.547 127.758 153.324 65.8134 153.324 65.8134C163.88 63.7754 177.052 59.2871 177.052 59.2871L177.375 59.4542H177.386Z" fill="#DD403F"/>
<path d="M20.6657 87.4195C20.3317 87.4195 20.0422 87.1522 20.031 86.8069C20.0088 86.4505 20.2871 86.1498 20.6323 86.1387C74.0119 83.3544 127.013 73.8768 178.154 57.9619C178.5 57.8617 178.856 58.051 178.956 58.3851C179.056 58.7192 178.867 59.0867 178.533 59.187C127.291 75.1353 74.19 84.6352 20.6991 87.4306C20.688 87.4306 20.6768 87.4306 20.6657 87.4306V87.4195Z" fill="#29153D"/>
<path d="M134.384 175.48C134.161 175.48 133.939 175.358 133.827 175.146C103.83 120.341 81.8618 61.6705 68.5336 0.772893C68.4557 0.427644 68.6784 0.0823937 69.0236 0.0155712C69.3687 -0.0623884 69.7139 0.160354 69.7807 0.505604C83.0866 61.2918 105.011 119.839 134.952 174.545C135.119 174.857 135.008 175.246 134.696 175.414C134.596 175.469 134.495 175.491 134.384 175.491V175.48Z" fill="#29153D"/>
<path d="M119.04 145.644C118.962 145.644 118.884 145.622 118.817 145.589C105.756 139.185 89.1322 129.974 77.04 121.789L76.7394 121.588L76.8062 121.221C80.3247 101.263 82.7187 80.4255 83.9212 59.2873C83.9324 58.9754 84.1885 58.7527 84.4891 58.7638C84.7786 58.7861 85.0124 59.0423 84.9902 59.3541C83.7876 80.4032 81.4159 101.163 77.9196 121.054C89.8783 129.128 106.358 138.26 119.263 144.586C119.53 144.72 119.641 145.043 119.519 145.321C119.43 145.522 119.24 145.644 119.04 145.644Z" fill="#29153D"/>
</svg>
