<svg width="223" height="259" viewBox="0 0 223 259" fill="none" xmlns="http://www.w3.org/2000/svg">
<path d="M82.1738 51.9331C72.2727 59.4523 65.2327 70.0068 58.4181 80.4061C51.6209 90.7882 44.6849 101.394 34.9052 109.086C25.1255 116.778 11.8258 121.158 0 117.278C0.832315 120.796 1.68197 124.297 2.49695 127.712C23.3048 127.35 43.6272 116.26 55.1409 99.0145C64.5911 84.8211 68.9434 66.2817 83.2142 56.8654C82.9714 55.434 82.7113 54.0199 82.1738 51.9503V51.9331Z" fill="#DD403F"/>
<path d="M221.077 107.835C213.566 117.41 213.226 130.96 215.197 143.098C217.168 155.236 221.094 167.147 220.873 179.425C220.601 194.824 213.396 209.961 201.739 219.64C199.071 217.966 196.42 216.292 193.752 214.617C205.494 206.839 213.481 193.359 214.772 179.076C215.877 167.043 212.512 155.114 210.643 143.185C208.791 131.257 208.672 118.09 215.945 108.568C217.406 108.707 218.867 108.847 221.077 107.835Z" fill="#DD403F"/>
<path d="M38.2304 258.116C38.7175 248.532 46.2492 240.64 54.5984 235.787C62.9303 230.934 72.3928 228.223 80.7768 223.44C95.4576 215.064 106.259 200.247 110.538 183.358C109.042 182.46 107.581 181.562 107.547 179.887C104.294 192.753 96.1359 204.34 85.0558 211.766C74.7236 218.691 62.3737 221.92 51.1892 227.394C40.0046 232.869 29.2376 241.866 27.3242 254.092C30.2986 255.681 33.2557 257.252 38.2304 258.15V258.116Z" fill="#DD403F"/>
<path d="M222.301 108.273C216.883 112.435 211.431 116.546 205.926 120.621C197.956 126.543 189.934 132.378 181.825 138.091C156.751 155.839 131.017 172.699 104.727 188.583C98.0248 158.626 92.1904 130.845 87.6757 103.814C85.7483 92.3009 84.0466 80.9101 82.6574 69.5367C81.9281 63.7367 81.2856 57.9368 80.73 52.1369C114.695 32.2987 150.343 15.822 190.854 1C200.248 36.3569 211.275 71.261 222.318 108.255L222.301 108.273Z" fill="#FBB800"/>
<path d="M222.301 107.945C216.883 112.096 211.431 116.194 205.926 120.258C201.255 87.5911 193.112 54.1078 181.703 23.4206C148.624 33.9276 111.847 50.6866 82.6574 69.3386C81.9455 63.5554 81.2856 57.7723 80.73 51.9891C114.695 32.2082 150.343 15.7792 190.854 1C200.248 36.2547 211.275 71.0405 222.318 107.945H222.301Z" fill="#934AF7"/>
<path d="M181.332 138.151C156.524 155.878 131.064 172.718 105.053 188.583C98.4214 158.661 92.6489 130.914 88.1821 103.915C104.452 93.3552 130.325 81.6126 152.418 91.9809C171.265 100.836 178.996 120.824 181.332 138.151Z" fill="#934AF7"/>
<path d="M111.831 123.608C117.752 110.804 131.983 104.521 143.597 109.592C155.228 114.662 159.831 129.157 153.91 141.978C147.989 154.782 131.386 160.518 122.144 155.994C110.776 150.429 105.909 136.429 111.831 123.608Z" fill="#FBB800"/>
<path d="M80.73 53.1755C125.152 81.1083 180.98 106.578 221.076 107.836" stroke="#29153D" stroke-miterlimit="10" stroke-linecap="round"/>
<path d="M190.027 1C165.496 65.1087 137.304 127.775 105.57 188.583" stroke="#29153D" stroke-miterlimit="10" stroke-linecap="round"/>
<path d="M128.801 142.619C128.488 142.619 128.175 142.444 128.018 142.146C127.809 141.708 127.966 141.182 128.401 140.971L180.608 114.399L168.235 52.9825C168.148 52.5092 168.444 52.0535 168.914 51.9484C169.401 51.8607 169.853 52.1587 169.94 52.6319L182.574 115.363L129.184 142.531C129.062 142.601 128.923 142.619 128.784 142.619H128.801Z" fill="#29153D"/>
</svg>
