<svg width="334" height="316" viewBox="0 0 334 316" fill="none" xmlns="http://www.w3.org/2000/svg">
<path d="M217.705 131.846C219.108 134.385 220.489 136.768 221.903 139.308C236.846 138.016 266.23 133.605 266.23 133.605C272.677 128.984 280.716 126.845 288.644 127.146C299.467 127.558 310.29 127.97 321.102 128.382C321.603 130.342 320.823 132.57 319.298 133.906C314.554 138.083 312.695 144.509 309.199 149.788C306.382 154.042 303.509 158.452 302.64 163.486C279.402 169.433 256.32 175.548 233.405 182.664C220.4 186.707 205.479 184.825 194.924 176.216C186.595 169.411 181.462 159.488 177.464 149.509L217.694 131.868L217.705 131.846Z" fill="#8F5D63"/>
<path d="M218.195 143.384C218.351 143.395 218.507 143.35 218.629 143.239L222.805 139.464C223.05 139.252 223.061 138.873 222.849 138.639C222.638 138.406 222.259 138.383 222.025 138.595L217.85 142.37C217.605 142.582 217.594 142.961 217.805 143.195C217.906 143.306 218.05 143.373 218.195 143.384Z" fill="#050902"/>
<path d="M0.000100642 310.641L189.557 315.441C189.334 314.795 189.122 314.16 188.9 313.503C182.152 293.411 174.926 273.398 168 253.329C166.218 248.206 164.47 243.061 162.744 237.915C163.357 235.588 163.98 233.282 164.604 230.955C139.896 223.036 115.478 216.031 90.781 209.805C72.2975 205.15 53.6469 200.929 34.6178 197.076C25.2201 221.221 16.9471 245.812 9.97678 270.759C6.26894 283.967 2.93965 297.254 0.000100642 310.629V310.641Z" fill="#7139BE"/>
<path d="M9.96644 270.77C20.4108 279.189 33.2045 284.702 46.5216 286.428C53.4473 287.319 60.9298 287.108 66.8312 283.366C72.7214 279.613 76.2066 271.438 72.8216 265.313C70.951 261.938 67.4881 259.8 64.8269 257.004C62.1546 254.22 60.2617 249.799 62.3773 246.569C64.4261 243.45 69.0359 243.283 72.5544 244.542C76.0618 245.8 79.1907 248.095 82.854 248.852C89.557 250.233 96.5719 245.689 99.2887 239.397C102.006 233.126 100.981 225.687 97.8746 219.584C96.0374 215.964 93.5544 212.745 90.7707 209.794C72.2872 205.139 53.6366 200.918 34.6074 197.064C25.2098 221.21 16.9367 245.8 9.96644 270.747V270.77Z" fill="#934AF7"/>
<path d="M121.134 220.809L151.064 228.85C151.921 236.044 147.512 243.54 140.809 246.279C134.105 249.019 125.71 246.758 121.278 241.034C116.858 235.298 116.791 226.6 121.134 220.809Z" fill="#934AF7"/>
<path d="M118.073 311.108L188.9 313.492C182.153 293.401 174.926 273.387 168.001 253.318C162.79 251.113 156.365 251.692 151.889 255.211C145.987 259.856 144.239 269.01 148.025 275.492C149.706 278.388 152.267 280.682 153.938 283.578C155.608 286.473 156.164 290.505 153.837 292.91C151.499 295.338 147.402 294.926 144.417 293.345C141.433 291.752 139.017 289.257 136 287.721C129.831 284.58 121.547 286.462 117.327 291.964C113.118 297.454 113.452 305.952 118.084 311.097L118.073 311.108Z" fill="#934AF7"/>
<path d="M135.732 269.467C134.942 271.85 132.225 273.42 129.764 272.919C128.483 272.663 127.337 271.917 126.479 270.937C125.299 269.611 124.631 267.796 124.831 266.036C125.032 264.277 126.156 262.606 127.782 261.905C131.88 260.145 137.102 265.368 135.732 269.456V269.467Z" fill="#934AF7"/>
<path d="M9.00823 305.016C9.27547 305.039 9.5204 304.883 9.60948 304.615L42.7463 204.215C42.8465 203.903 42.6795 203.58 42.3789 203.48C42.0671 203.379 41.7441 203.546 41.6439 203.847L8.50716 304.248C8.40695 304.56 8.57399 304.883 8.87462 304.983C8.91916 304.994 8.9637 305.005 9.00823 305.005V305.016Z" fill="#050902"/>
<path d="M32.5022 236.512C32.569 236.512 32.6248 236.512 32.6916 236.501C47.2557 232.881 60.1496 222.802 67.1867 209.538C67.3426 209.249 67.2313 208.903 66.9418 208.747C66.6523 208.591 66.3071 208.703 66.1512 208.992C59.27 221.967 46.6544 231.823 32.4021 235.365C32.0903 235.443 31.901 235.755 31.9789 236.078C32.0457 236.323 32.2573 236.501 32.5022 236.523V236.512Z" fill="#050902"/>
<path d="M23.8396 100.952C33.961 77.5303 56.7314 58.5973 82.1964 57.0047C97.8628 56.0246 113.362 55.9801 129.029 55C128.884 58.8868 131.913 62.6512 135.743 63.3417C139.573 64.0322 144.105 61.4929 145.33 57.7954C158.658 64.8563 171.997 71.9061 185.326 78.967C204.923 89.3468 216.614 111.164 223.963 132.091C211.281 137.459 198.309 143.328 185.626 148.696C180.337 177.764 174.425 206.141 169.136 235.209L27.759 201.352C36.4552 173.443 45.374 145.778 54.0591 117.88C43.9265 112.49 33.961 106.342 23.8173 100.963L23.8396 100.952Z" fill="#DD403F"/>
<path d="M134.128 81.5841C144.628 82.4417 155.362 77.3186 161.553 68.2753C161.731 68.008 161.664 67.6404 161.397 67.4623C161.13 67.2841 160.773 67.3509 160.584 67.6182C154.182 76.9845 142.19 82.0964 131.434 80.0472C120.666 77.998 111.247 68.821 108.53 57.7173C108.452 57.4055 108.14 57.205 107.817 57.283C107.505 57.3609 107.316 57.6728 107.383 57.9957C110.256 69.7119 119.82 79.0337 131.2 81.1943C132.169 81.3836 133.137 81.5061 134.117 81.5841H134.128Z" fill="#050902"/>
<path d="M185.225 150.155C185.515 150.178 185.782 149.988 185.838 149.699L191.26 125.687C191.327 125.375 191.138 125.063 190.815 124.986C190.503 124.919 190.18 125.108 190.113 125.431L184.691 149.443C184.624 149.754 184.813 150.066 185.136 150.144C185.158 150.144 185.192 150.144 185.214 150.155H185.225Z" fill="#050902"/>
<path d="M188.321 139.074C188.421 139.074 188.521 139.074 188.621 139.018L220.633 123.727C220.923 123.593 221.045 123.237 220.912 122.947C220.778 122.658 220.422 122.535 220.132 122.669L188.12 137.96C187.831 138.094 187.708 138.45 187.842 138.74C187.931 138.94 188.12 139.052 188.321 139.074Z" fill="#050902"/>
<path d="M80.6601 120.887C80.8717 120.909 81.0832 120.809 81.2057 120.62C81.3727 120.341 81.2948 119.985 81.0164 119.818L31.2667 88.6227C30.9995 88.4445 30.6321 88.5336 30.4651 88.8121C30.298 89.0905 30.376 89.4469 30.6543 89.6139L80.404 120.809C80.4819 120.865 80.571 120.887 80.6713 120.898L80.6601 120.887Z" fill="#050902"/>
<path d="M20.9089 137.12C24.4386 126.139 27.9683 115.158 31.498 104.188L73.8431 126.039C72.3177 131.663 71.0372 137.176 69.5117 142.811C87.2493 151.977 106.189 158.827 122.446 170.409C131.064 176.546 147.688 189.008 147.688 189.008C147.688 189.008 155.082 202.161 158.778 208.732C155.794 211.249 152.621 214.022 149.637 216.539C149.136 216.617 148.2 215.915 148.089 215.425C147.989 214.924 148.134 214.412 148.289 213.933C148.779 212.351 149.269 210.759 149.759 209.177C147.666 207.273 145.773 205.012 143.68 203.096C143.68 206.382 143.68 209.79 143.691 213.075C143.691 214.946 141.531 216.205 139.66 216.316C137.789 216.428 135.919 215.202 135.273 213.443C134.716 211.906 134.416 210.269 133.915 208.721C133.759 210.647 133.603 212.574 133.447 214.501C133.302 216.238 131.142 217.597 129.405 217.385C127.668 217.174 126.243 215.848 125.43 214.3C124.617 212.752 124.328 210.993 124.049 209.278C123.726 210.848 123.403 212.418 123.081 213.989C122.824 215.225 120.898 215.848 119.696 215.492C118.482 215.136 117.591 214.066 117.101 212.908C116.6 211.75 114.986 205.691 114.986 205.691C114.986 205.691 98.7959 198.987 91.5807 194.131C74.5446 189.286 56.9407 183.93 39.5706 178.528C33.569 176.657 28.4471 172.748 24.4164 167.914C20.3856 163.081 17.9026 156.878 18.0028 150.585C18.0807 145.985 19.5059 141.519 20.9089 137.131V137.12Z" fill="#8F5D63"/>
<path d="M71.0258 143.97C71.2707 143.992 71.5157 143.858 71.6159 143.613C71.7384 143.313 71.6048 142.967 71.3041 142.845L59.0783 137.655C58.7777 137.521 58.4325 137.666 58.31 137.967C58.1875 138.267 58.3211 138.613 58.6218 138.735L70.8476 143.925C70.9033 143.947 70.9701 143.97 71.0258 143.97Z" fill="#050902"/>
<path d="M143.58 206.037C143.58 206.037 143.635 206.037 143.669 206.037C143.992 206.014 144.237 205.736 144.214 205.413L143.602 196.425C143.58 196.102 143.301 195.857 142.978 195.88C142.656 195.902 142.411 196.18 142.433 196.503L143.045 205.491C143.068 205.78 143.301 206.014 143.58 206.037Z" fill="#050902"/>
<path d="M133.581 211.783C133.581 211.783 133.636 211.783 133.659 211.783C133.982 211.772 134.227 211.494 134.215 211.171L133.592 198.764C133.581 198.441 133.302 198.196 132.98 198.207C132.657 198.218 132.412 198.497 132.423 198.82L133.046 211.226C133.057 211.527 133.291 211.761 133.581 211.783Z" fill="#050902"/>
<path d="M124.228 212.674C124.228 212.674 124.317 212.674 124.361 212.674C124.684 212.63 124.907 212.329 124.862 212.017L123.304 201.002C123.259 200.679 122.958 200.457 122.647 200.501C122.324 200.546 122.101 200.847 122.146 201.158L123.704 212.173C123.738 212.451 123.972 212.652 124.239 212.674H124.228Z" fill="#050902"/>
<path d="M114.908 206.85C114.963 206.85 115.03 206.85 115.086 206.838C115.398 206.76 115.598 206.449 115.52 206.137L114.696 202.651C114.618 202.339 114.307 202.139 113.995 202.217C113.683 202.295 113.483 202.606 113.561 202.918L114.384 206.415C114.44 206.671 114.663 206.838 114.908 206.861V206.85Z" fill="#050902"/>
<path d="M288.074 157.445C288.597 158.882 289.844 160.04 291.314 160.452C292.784 160.864 294.777 160.82 295.968 159.862C296.859 161.844 299.119 163.114 301.28 162.825C303.429 162.535 305.533 161.109 305.878 158.96C307.136 159.918 308.918 160.14 310.377 159.528C311.835 158.915 312.904 157.98 313.105 156.41C316 157.133 319.362 155.597 320.776 152.968C325.074 144.961 329.361 136.953 333.659 128.946C332.924 128.199 331.789 127.887 330.753 128.099C329.729 128.311 328.804 128.868 327.936 129.436C324.651 131.607 321.678 134.236 319.117 137.22C319.574 134.96 319.93 132.966 320.387 130.705C319.24 129.669 317.291 130.07 316.022 130.95C314.753 131.83 313.94 133.211 313.16 134.559C311.045 138.234 308.929 141.909 306.814 145.595C307.415 142.176 308.016 138.757 308.606 135.327C307.404 134.147 305.444 134.581 304.097 135.594C302.749 136.608 301.959 138.189 301.224 139.704C299.821 142.588 298.407 145.484 297.004 148.369C297.193 145.061 297.371 141.742 297.561 138.434C296.436 137.788 294.81 138.434 293.953 139.392C293.096 140.35 292.717 141.642 292.361 142.889C291.047 147.533 289.388 152.823 288.074 157.468V157.445Z" fill="#8F5D63"/>
<path d="M314.085 155.463C314.363 155.485 314.63 155.307 314.697 155.017L320.799 130.571C320.855 130.338 320.766 130.104 320.576 129.959C319.441 129.113 317.47 129.135 316.178 130.015C315.042 130.794 314.308 131.964 313.662 133.011L306.591 144.348C306.424 144.626 306.502 144.983 306.78 145.15C307.059 145.317 307.415 145.239 307.582 144.961L314.653 133.623C315.243 132.688 315.9 131.618 316.835 130.972C317.592 130.449 318.761 130.36 319.541 130.705L313.539 154.728C313.461 155.04 313.651 155.363 313.962 155.441C313.996 155.441 314.029 155.452 314.063 155.452L314.085 155.463Z" fill="#050902"/>
<path d="M304.977 158.359C305.277 158.381 305.556 158.169 305.6 157.869L309.085 135.405C309.108 135.238 309.063 135.071 308.952 134.937C307.916 133.69 305.945 133.79 304.642 134.603C303.418 135.372 302.683 136.608 302.037 137.699L296.314 147.366C296.147 147.645 296.236 148.001 296.514 148.168C296.793 148.335 297.149 148.246 297.316 147.968L303.039 138.312C303.618 137.332 304.275 136.218 305.255 135.606C306.045 135.116 307.215 134.993 307.872 135.516L304.431 157.69C304.386 158.013 304.598 158.303 304.921 158.359C304.932 158.359 304.954 158.359 304.965 158.359H304.977Z" fill="#050902"/>
<path d="M296.202 158.871C296.525 158.893 296.803 158.648 296.826 158.325L298.14 138.579C298.14 138.468 298.117 138.345 298.062 138.245C297.839 137.866 297.494 137.633 297.06 137.555C296.147 137.388 295.011 138.033 294.332 138.624C293.374 139.448 293.018 140.751 292.762 141.698L289.722 152.668C288.998 152.311 288.33 151.899 287.64 151.476C286.76 150.93 285.847 150.362 284.789 149.917C284.489 149.794 284.143 149.939 284.021 150.229C283.898 150.529 284.032 150.875 284.333 150.997C285.313 151.398 286.136 151.921 287.016 152.467C287.896 153.013 288.809 153.581 289.867 154.026C290.022 154.093 290.201 154.082 290.345 154.015C290.49 153.937 290.613 153.804 290.657 153.648L293.875 142.021C294.165 140.985 294.454 140.083 295.089 139.526C295.668 139.025 296.458 138.668 296.859 138.724C296.893 138.724 296.926 138.735 296.948 138.746L295.645 158.258C295.623 158.581 295.868 158.86 296.18 158.882L296.202 158.871Z" fill="#050902"/>
<path d="M124.439 13.7324C124.528 13.7324 124.617 13.7324 124.695 13.699C124.962 13.5988 125.107 13.3203 125.051 13.0419C124.617 10.8479 125.296 8.36434 126.855 6.39307C128.247 4.64455 130.307 3.26354 132.823 2.40598C134.839 1.71548 137.088 1.33684 140.15 1.16978C140.473 1.14751 140.718 0.880195 140.707 0.557219C140.684 0.234244 140.406 -0.0107721 140.094 0.000365018C136.932 0.167421 134.571 0.56836 132.456 1.29227C129.728 2.22779 127.479 3.73131 125.953 5.65802C124.706 7.22835 123.96 9.11053 123.793 10.9593C123.715 10.8479 123.648 10.7365 123.57 10.6252C123.103 9.91238 122.646 9.18847 122.179 8.43115C122.012 8.15272 121.655 8.07478 121.377 8.24183C121.099 8.40889 121.021 8.77642 121.188 9.04371C121.655 9.81217 122.123 10.5361 122.591 11.26C123.058 11.9727 123.515 12.6967 123.982 13.454C124.083 13.621 124.25 13.7101 124.428 13.7324H124.439Z" fill="black"/>
<path d="M114.206 23.3216C114.852 22.1299 116.255 21.0273 117.613 21.1053C116.032 19.1117 116.032 16.0157 117.613 14.0221C119.194 12.0286 122.112 11.494 124.416 12.5854C124.828 8.78768 127.879 5.68041 131.376 4.14349C134.872 2.60658 138.791 2.36157 142.61 2.23906C144.448 2.18338 146.296 2.14997 148.089 2.56205C149.87 2.97412 151.607 3.89848 152.654 5.40199C153.701 6.9055 154.135 9.40021 153.099 10.9037C154.436 11.0151 155.683 11.8838 156.25 13.1089C156.818 14.3228 156.674 15.8375 155.905 16.94C155.126 18.0315 153.623 18.7776 152.287 18.644C152.32 22.865 152.353 27.097 152.387 31.318L120.208 43.1678C118.493 39.1585 116.767 35.1491 115.052 31.1287C114.518 29.8813 113.972 28.6117 113.738 27.2752C113.493 25.9388 113.571 24.5021 114.228 23.2993L114.206 23.3216Z" fill="black"/>
<path d="M115.464 55.9642C118.27 55.786 121.165 55.6635 123.982 55.4853C124.617 53.2801 124.918 50.9748 125.552 48.7696C122.947 48.8142 120.386 47.2661 119.206 44.9496C118.014 42.6331 118.27 39.6484 119.818 37.5657C121.366 35.472 124.294 34.6033 126.855 35.071C127.134 35.5833 127.735 36.1179 128.024 36.6302C129.416 36.5634 130.763 35.884 131.632 34.7926C132.5 33.7123 132.645 32.1531 132.411 30.7832C133.413 31.5851 134.917 31.6853 136.008 31.0171C137.099 30.3489 137.812 29.0013 137.556 27.754C139.126 29.1572 141.408 29.7141 143.446 29.1795C145.483 28.6449 147.31 26.9298 147.978 24.9363C150.394 26.4955 152.398 28.6895 153.734 31.2399C155.249 34.1244 155.549 37.3653 156.451 40.4948C157.242 43.2456 156.184 46.3974 154.391 48.6471C152.61 50.8857 149.793 52.2667 146.931 52.3112C146.397 54.7948 146.051 57.0445 145.517 59.5392C147.354 60.6195 149.581 61.8111 151.418 62.8914C146.875 69.0168 138.658 72.358 131.164 70.9213C123.671 69.4958 117.446 63.3704 115.476 55.9976L115.464 55.9642Z" fill="#8F5D63"/>
<path d="M143.947 40.6508C143.903 41.7534 142.856 42.7223 141.754 42.6778C140.651 42.6332 139.694 41.5752 139.749 40.4727L143.947 40.6508Z" fill="white"/>
<path d="M141.33 53.8259C143.479 54.0041 145.639 53.8927 147.732 53.5029C148.055 53.4472 148.255 53.1354 148.2 52.8236C148.144 52.5117 147.832 52.3001 147.521 52.3558C143.122 53.1799 138.424 52.6676 134.293 50.9303C134.003 50.8077 133.647 50.9414 133.524 51.2421C133.402 51.5428 133.535 51.888 133.836 52.0106C136.208 53.0018 138.746 53.6143 141.33 53.8259Z" fill="#050902"/>
<path d="M126.176 41.1186C126.454 41.1409 126.711 40.9627 126.788 40.6954C126.878 40.3836 126.688 40.0606 126.377 39.9715L122.435 38.8912C122.134 38.8021 121.8 38.9914 121.711 39.3033C121.622 39.6151 121.811 39.9381 122.123 40.0272L126.065 41.1075C126.065 41.1075 126.132 41.1186 126.176 41.1298V41.1186Z" fill="#050902"/>
<path d="M146.575 39.4702C146.575 39.4702 146.642 39.4702 146.675 39.4702L148.401 39.3366C148.602 39.3254 148.78 39.2029 148.869 39.0247C148.958 38.8465 148.958 38.6349 148.869 38.4679L146.553 34.3583C146.397 34.0799 146.029 33.9796 145.762 34.1356C145.484 34.2915 145.384 34.6479 145.539 34.9263L147.41 38.2452L146.597 38.312C146.274 38.3342 146.029 38.6238 146.063 38.9468C146.085 39.2363 146.319 39.4591 146.597 39.4814L146.575 39.4702Z" fill="#050902"/>
<path d="M136.832 37.8553C137.066 37.8776 137.3 37.7551 137.411 37.5323C137.656 37.02 138.201 36.6414 138.769 36.608C139.337 36.5634 139.938 36.853 140.25 37.3207C140.428 37.588 140.796 37.6549 141.063 37.4767C141.33 37.2985 141.397 36.9309 141.219 36.6636C140.662 35.8506 139.671 35.3717 138.68 35.4386C137.689 35.5165 136.776 36.1402 136.353 37.02C136.208 37.3096 136.331 37.666 136.62 37.7996C136.687 37.833 136.754 37.8442 136.832 37.8553Z" fill="#050902"/>
<path d="M150.338 35.628C150.338 35.628 150.371 35.628 150.382 35.628C150.705 35.628 150.973 35.3719 150.973 35.0489C150.973 34.6257 151.229 34.2136 151.596 34.0131C151.964 33.8127 152.453 33.8238 152.81 34.0466C153.088 34.2136 153.444 34.1356 153.611 33.8684C153.778 33.5899 153.701 33.2335 153.433 33.0665C152.721 32.6099 151.774 32.5876 151.039 32.9885C150.293 33.3895 149.815 34.2025 149.803 35.0489C149.803 35.3607 150.037 35.6169 150.338 35.6391V35.628Z" fill="#050902"/>
<path d="M148.289 29.6585C148.522 29.6807 148.756 29.5471 148.868 29.3244C149.057 28.9123 149.424 28.5893 149.847 28.4557C150.282 28.322 150.761 28.3777 151.15 28.6005C151.429 28.7675 151.785 28.6673 151.952 28.3889C152.119 28.1104 152.019 27.754 151.74 27.587C151.072 27.1972 150.226 27.0969 149.491 27.3308C148.756 27.5647 148.122 28.1215 147.799 28.8232C147.665 29.1127 147.799 29.458 148.088 29.6028C148.155 29.6362 148.222 29.6473 148.289 29.6585Z" fill="#050902"/>
<path d="M136.331 33.1332C136.565 33.1554 136.798 33.033 136.899 32.8102C137.055 32.4761 137.389 32.2199 137.801 32.1086C138.213 31.9861 138.625 32.0417 138.936 32.2422C139.204 32.4093 139.571 32.3313 139.749 32.064C139.927 31.7967 139.838 31.4292 139.571 31.251C138.981 30.8724 138.213 30.7833 137.489 30.9837C136.754 31.1953 136.164 31.6742 135.852 32.309C135.707 32.5986 135.83 32.9439 136.119 33.0886C136.186 33.1221 136.253 33.1443 136.331 33.1443V33.1332Z" fill="#050902"/>
</svg>
