<svg width="310" height="277" viewBox="0 0 310 277" fill="none" xmlns="http://www.w3.org/2000/svg">
<path d="M2.00014 210.645C3.14701 193.349 29.8368 138.343 29.8368 138.343L59.9004 151.15L2.00014 210.634V210.645Z" fill="#DE7C51"/>
<path d="M285.456 128.208C277.194 115.423 268.698 102.381 256.639 93.0818C248.689 86.9564 238.189 83.5373 228.658 80.3632C208.949 73.8146 189.219 66.4864 169.499 59.9378C166.771 62.143 163.153 63.2121 159.667 62.8669C156.182 62.5217 152.563 60.7063 150.325 58C134.626 62.3769 118.915 66.7538 103.215 71.1306C86.0784 75.9084 69.0757 84.1053 55.8144 95.9775C42.5641 107.838 31.6967 122.094 20.974 136.294C36.1172 141.996 51.3717 147.887 66.5148 153.59C64.2768 190.32 62.4283 226.983 60.1903 263.713L258.989 269.582C262.507 240.18 266.271 210.656 269.789 181.254C283.028 176.265 296.691 171.075 309.93 166.085C301.768 153.456 293.606 140.826 285.445 128.197L285.456 128.208Z" fill="#FBB800"/>
<path d="M161.939 72.9237C161.271 72.9237 160.592 72.8903 159.924 72.8235C152.909 72.0996 146.362 67.5556 143.244 61.2298C143.111 60.9514 143.222 60.6173 143.5 60.4836C143.779 60.35 144.113 60.4613 144.246 60.7397C147.197 66.7315 153.399 71.0304 160.046 71.7209C166.683 72.4003 173.631 69.4489 177.739 64.1811C177.929 63.9361 178.274 63.8915 178.519 64.0809C178.764 64.2702 178.808 64.6155 178.619 64.8605C174.689 69.8833 168.319 72.9237 161.939 72.9237Z" fill="#050902"/>
<path d="M219.927 187.547C219.715 187.547 219.515 187.424 219.415 187.213C219.292 186.934 219.415 186.6 219.693 186.477L300.352 150.416C300.642 150.293 300.965 150.416 301.087 150.694C301.21 150.972 301.087 151.307 300.809 151.429L220.149 187.491C220.072 187.524 219.994 187.535 219.927 187.535V187.547Z" fill="#050902"/>
<path d="M60.8697 136.594C60.8029 136.594 60.7249 136.583 60.6581 136.55L31.4964 124.733C31.2069 124.622 31.0733 124.288 31.1846 124.009C31.296 123.72 31.6189 123.586 31.9084 123.698L61.0701 135.514C61.3596 135.625 61.4932 135.959 61.3818 136.238C61.2927 136.45 61.0812 136.583 60.8697 136.583V136.594Z" fill="#050902"/>
<path d="M211.565 197.236C211.565 197.236 211.488 197.236 211.443 197.225C211.142 197.158 210.953 196.857 211.02 196.557L230.082 112.293C231.24 107.204 232.521 102.092 233.79 97.5144C234.503 94.9529 235.238 92.3134 236.752 90.008C238.478 87.3908 241.028 85.7425 243.6 85.6089C243.901 85.5755 244.168 85.8316 244.19 86.1323C244.212 86.4442 243.967 86.7003 243.667 86.7226C241.451 86.8451 239.213 88.3041 237.687 90.6206C236.273 92.7812 235.561 95.3316 234.87 97.8151C233.601 102.37 232.332 107.471 231.185 112.55L212.122 196.824C212.067 197.08 211.833 197.258 211.577 197.258L211.565 197.236Z" fill="#050902"/>
<path d="M82.0693 119.02C82.0693 119.02 82.047 119.02 82.0359 119.02C81.7241 118.998 81.5015 118.73 81.5126 118.43L84.185 78.2248C84.2072 77.9129 84.4744 77.6902 84.7751 77.7013C85.0868 77.7236 85.3096 77.9909 85.2984 78.2916L82.6261 118.496C82.6038 118.786 82.3589 119.02 82.0693 119.02Z" fill="#050902"/>
<path d="M17.4094 185.931C30.3701 170.996 44.2996 156.15 56.6591 140.714C65.1882 130.056 73.7285 119.386 82.2576 108.728C88.5487 111.702 95.5525 115.054 101.832 118.017C103.581 118.841 103.826 121.313 103.124 123.129C104.906 123.708 105.852 124.966 106.442 126.748C107.032 128.53 106.721 130.579 105.64 132.116C107.467 132.751 109.304 134.388 109.649 136.293C109.994 138.197 109.237 140.268 107.734 141.494C109.259 141.839 109.716 144.69 109.371 146.216C109.025 147.741 107.923 148.967 106.854 150.114C102.478 154.847 98.1023 159.58 93.7264 164.313C94.0382 169.481 91.6442 174.604 87.1346 177.132C83.8499 194.105 77.5143 210.243 69.4417 225.523C64.2864 235.268 55.8686 244.144 45.3686 247.496C34.8686 250.849 22.7986 249.067 13.8686 242.585C4.94969 236.114 -0.517408 225.033 0.0393248 214.029C0.596058 203.015 10.1608 194.283 17.3872 185.953L17.4094 185.931Z" fill="#DE7C51"/>
<path d="M14.392 189.071C14.2584 189.071 14.1359 189.027 14.0246 188.938C13.7908 188.737 13.7685 188.381 13.9689 188.158L47.5399 149.858C47.7403 149.624 48.0966 149.601 48.3305 149.802C48.5643 150.002 48.5866 150.359 48.3861 150.593L14.8152 188.893C14.7038 189.016 14.5479 189.082 14.392 189.082V189.071Z" fill="#050902"/>
<path d="M84.228 126.425C83.9496 126.425 83.7158 126.225 83.6713 125.935C83.6379 125.635 83.8494 125.356 84.1501 125.312L103.19 122.917C103.502 122.873 103.769 123.095 103.814 123.396C103.847 123.697 103.636 123.975 103.335 124.02L84.2948 126.414C84.2948 126.414 84.2503 126.414 84.228 126.414V126.425Z" fill="#050902"/>
<path d="M87.2123 140.747C87.0007 140.747 86.7892 140.625 86.7001 140.413C86.5777 140.135 86.7001 139.801 86.9785 139.678L105.373 131.526C105.651 131.403 105.985 131.526 106.108 131.804C106.23 132.083 106.108 132.417 105.829 132.539L87.435 140.692C87.3571 140.725 87.2902 140.736 87.2123 140.736V140.747Z" fill="#050902"/>
<path d="M94.8958 150.147C94.7065 150.147 94.5283 150.058 94.417 149.88C94.25 149.624 94.339 149.279 94.5951 149.111L107.667 141.015C107.934 140.848 108.268 140.937 108.435 141.193C108.591 141.449 108.513 141.794 108.257 141.961L95.1853 150.058C95.0962 150.114 94.996 150.147 94.8958 150.147Z" fill="#050902"/>
<path d="M82.1019 180.83C81.9015 180.83 81.7011 180.718 81.6009 180.529C81.4672 180.251 81.5674 179.916 81.8458 179.783L87.1348 177.11C87.4131 176.976 87.7472 177.077 87.8808 177.355C88.0144 177.633 87.9142 177.967 87.6358 178.101L82.3469 180.774C82.2689 180.819 82.1799 180.83 82.0908 180.83H82.1019Z" fill="#050902"/>
<path d="M90.642 125.367C90.4082 125.367 90.1966 125.222 90.1186 125L88.8382 121.358C88.738 121.068 88.8827 120.745 89.1834 120.645C89.4729 120.545 89.7958 120.69 89.896 120.99L91.1765 124.632C91.2767 124.922 91.1319 125.245 90.8313 125.345C90.7645 125.367 90.7088 125.378 90.642 125.378V125.367Z" fill="#050902"/>
<path d="M173.75 23.0952C171.947 17.148 170.276 10.8778 168.183 5.03088C167.192 2.24661 164.186 0.342165 161.246 0.609455C158.307 0.887882 155.623 3.51625 155.167 6.43416C154.632 5.38728 153.263 4.8527 152.16 5.25363C151.058 5.65457 150.156 7.22488 150.412 8.372C148.831 6.44529 145.891 5.78823 143.642 6.86852C141.393 7.94882 140.068 10.6774 140.58 13.1164C139.099 11.5572 136.416 11.6129 134.69 12.8825C132.964 14.1633 132.118 16.3684 132.04 18.5179C131.962 20.6674 132.541 22.7723 133.187 24.8215C133.32 25.2224 133.454 25.6345 133.588 26.0354C132.541 26.3695 131.795 27.4833 131.84 28.6081C131.884 29.822 132.741 30.9246 133.866 31.4035C134.434 31.6485 135.069 31.7376 135.681 31.6931C137.574 36.3595 139.845 40.87 142.473 45.1689C147.94 44.8014 153.641 44.5898 159.097 44.2223L173.227 31.359C174.797 28.9311 174.574 25.8684 173.728 23.0952H173.75Z" fill="#050902"/>
<path d="M169.008 64.8926C169.331 61.9859 169.431 58.9009 169.754 56.0053C173.484 54.847 176.669 52.0182 178.261 48.4543C179.853 44.8905 180.11 40.7141 178.484 37.1502C176.246 32.261 173.507 27.6836 170.311 23.3513C169.999 24.6878 168.997 25.846 167.717 26.336C166.436 26.8261 164.588 26.9375 163.474 26.1356C163.33 27.2938 162.483 28.3296 161.381 28.7194C160.279 29.0981 158.931 29.1315 158.096 28.3184C157.228 30.2452 154.478 31.2698 152.774 30.0224C152.696 32.7956 152.618 35.5687 152.551 38.3418C152.529 39.0769 152.496 39.8676 152.061 40.469C151.594 41.115 150.681 41.3934 149.923 41.1261C149.177 40.8588 148.131 40.0681 148.186 39.2662C145.381 39.1326 142.575 40.7363 141.261 43.2087C139.947 45.6812 140.181 48.9109 141.851 51.1606C143.521 53.4103 146.539 54.5797 149.289 54.0451C148.81 56.9408 148.175 60.0035 147.697 62.8991C149.935 66.4073 153.754 68.7238 157.896 69.1024C162.038 69.4811 166.18 67.9442 169.019 64.9038L169.008 64.8926Z" fill="#DE7C51"/>
<path d="M163.597 41.0593C163.396 42.3624 164.487 43.7211 165.812 43.7991C167.126 43.877 168.373 42.6631 168.329 41.3378L163.597 41.0593Z" fill="white"/>
<path d="M174.207 32.8067C174.207 32.1385 173.661 31.5928 172.993 31.5928C172.325 31.5928 171.78 32.1385 171.78 32.8067C171.78 33.4749 172.325 34.0206 172.993 34.0206C173.661 34.0206 174.207 33.4749 174.207 32.8067Z" fill="#050902"/>
<path d="M161.938 37.6849C161.938 37.0167 161.392 36.4709 160.724 36.4709C160.056 36.4709 159.51 37.0167 159.51 37.6849C159.51 38.3531 160.056 38.8988 160.724 38.8988C161.392 38.8988 161.938 38.3531 161.938 37.6849Z" fill="#050902"/>
<path d="M148.842 45.102H144.343C144.031 45.102 143.787 44.857 143.787 44.5451C143.787 44.2333 144.031 43.9883 144.343 43.9883H148.842C149.153 43.9883 149.398 44.2333 149.398 44.5451C149.398 44.857 149.153 45.102 148.842 45.102Z" fill="#050902"/>
<path d="M168.316 38.8988C168.071 38.8988 167.838 38.7317 167.782 38.4756C167.704 38.1749 167.893 37.8742 168.183 37.7962C168.483 37.7182 168.873 37.6626 169.263 37.5957C169.33 37.5957 169.396 37.5735 169.463 37.5623L166.29 32.9293C166.112 32.6732 166.179 32.3279 166.435 32.1608C166.691 31.9827 167.036 32.0495 167.214 32.3056L170.866 37.6403C170.966 37.7851 170.989 37.9855 170.933 38.1526C170.866 38.3197 170.722 38.4533 170.543 38.4978C170.243 38.5758 169.842 38.6426 169.452 38.6983C169.096 38.754 168.728 38.8097 168.461 38.8877C168.417 38.8877 168.372 38.8988 168.328 38.8988H168.316Z" fill="#050902"/>
<path d="M156.18 35.2458C156.18 35.2458 156.147 35.2458 156.136 35.2458C155.824 35.2235 155.601 34.9563 155.623 34.6444C155.712 33.4639 156.392 32.3613 157.472 31.6263C158.552 30.8912 159.832 30.6685 160.968 31.0249C161.257 31.114 161.424 31.4258 161.335 31.7154C161.246 32.0049 160.935 32.1831 160.645 32.0829C159.843 31.8379 158.897 32.0049 158.106 32.5507C157.316 33.0852 156.804 33.9094 156.737 34.7447C156.714 35.0342 156.47 35.257 156.18 35.257V35.2458Z" fill="#050902"/>
<path d="M168.953 28.8419H168.941C168.63 28.8419 168.396 28.5746 168.396 28.2739C168.418 27.383 168.975 26.5365 169.854 26.0576C170.734 25.5787 171.747 25.5676 172.504 26.0354C172.772 26.1913 172.85 26.5366 172.694 26.8038C172.538 27.06 172.193 27.1491 171.925 26.982C171.502 26.7259 170.912 26.7481 170.389 27.0266C169.866 27.3161 169.532 27.795 169.52 28.2962C169.52 28.5969 169.264 28.8419 168.964 28.8419H168.953Z" fill="#050902"/>
<path d="M148.853 54.847C148.585 54.847 148.352 54.6577 148.307 54.3792C148.251 54.0785 148.463 53.789 148.764 53.7333L150.968 53.3546C151.269 53.2989 151.558 53.5105 151.614 53.8112C151.67 54.1119 151.458 54.4015 151.158 54.4572L148.953 54.8358C148.953 54.8358 148.886 54.8358 148.853 54.8358V54.847Z" fill="#050902"/>
<path d="M164.787 57.4753C162.237 57.4753 159.687 57.0855 157.237 56.317C156.948 56.2279 156.781 55.9161 156.87 55.6154C156.959 55.3258 157.271 55.1588 157.571 55.2479C161.758 56.5621 166.223 56.7068 170.476 55.6711C170.777 55.5931 171.078 55.7825 171.145 56.0832C171.222 56.3839 171.033 56.6845 170.733 56.7514C168.773 57.2303 166.769 57.4641 164.776 57.4641L164.787 57.4753Z" fill="#050902"/>
<path d="M216.53 200.364C216.463 203.215 215.906 206.066 215.84 208.917C200.819 231.002 185.186 252.764 170.165 274.849L266.769 276.23C275.622 259.324 282.302 240.19 283.405 221.135C284.262 206.3 284.975 191.566 285.832 176.731C262.739 184.605 239.634 192.479 216.541 200.364H216.53Z" fill="#DE7C51"/>
<path d="M215.997 210.811C215.74 210.811 215.507 210.632 215.451 210.365C215.384 210.064 215.585 209.764 215.885 209.708L221.887 208.472C222.199 208.405 222.477 208.606 222.544 208.906C222.611 209.207 222.41 209.496 222.109 209.563L216.108 210.8C216.108 210.8 216.03 210.8 215.997 210.8V210.811Z" fill="#050902"/>
<path d="M131.684 95.6533C131.439 95.6533 131.205 95.4862 131.15 95.2301C131.072 94.9294 131.25 94.6287 131.55 94.5507L139.701 92.4792C139.99 92.4013 140.302 92.5795 140.38 92.8802C140.458 93.1809 140.28 93.4816 139.979 93.5595L131.829 95.631C131.829 95.631 131.74 95.6533 131.695 95.6533H131.684Z" fill="white"/>
<path d="M133.008 77.422C132.852 77.422 132.707 77.3552 132.596 77.2327L129.178 73.3793C128.977 73.1454 128.999 72.8001 129.222 72.5885C129.456 72.3881 129.801 72.3992 130.013 72.6331L133.431 76.4865C133.631 76.7204 133.609 77.0657 133.386 77.2773C133.275 77.3664 133.153 77.422 133.019 77.422H133.008Z" fill="white"/>
<path d="M170.244 91.1206C169.987 91.1206 169.754 90.9424 169.698 90.6863C169.631 90.3856 169.82 90.0849 170.121 90.0181L177.826 88.303C178.127 88.2361 178.428 88.4255 178.494 88.7262C178.561 89.0269 178.372 89.3276 178.071 89.3944L170.366 91.1095C170.366 91.1095 170.288 91.1206 170.244 91.1206Z" fill="white"/>
<path d="M189.084 124.91C188.961 124.91 188.828 124.866 188.728 124.777L181.022 118.362C180.789 118.161 180.755 117.816 180.956 117.582C181.156 117.348 181.501 117.315 181.735 117.504L189.44 123.919C189.674 124.12 189.707 124.465 189.507 124.699C189.396 124.832 189.24 124.899 189.084 124.899V124.91Z" fill="white"/>
<path d="M151.37 136.471C151.259 136.471 151.148 136.437 151.059 136.371C150.803 136.192 150.747 135.847 150.914 135.591L155.635 128.753C155.813 128.497 156.158 128.43 156.414 128.608C156.67 128.786 156.726 129.132 156.559 129.388L151.838 136.226C151.727 136.382 151.56 136.471 151.381 136.471H151.37Z" fill="white"/>
<path d="M130.871 146.65C130.871 146.65 130.849 146.65 130.838 146.65L123.556 146.26C123.244 146.249 123.01 145.982 123.033 145.67C123.055 145.358 123.311 145.102 123.623 145.147L130.905 145.536C131.217 145.548 131.45 145.815 131.428 146.127C131.417 146.427 131.161 146.65 130.871 146.65Z" fill="white"/>
<path d="M122.22 114.787C122.109 114.787 121.998 114.754 121.897 114.676L117.187 111.257C116.943 111.078 116.887 110.733 117.065 110.477C117.243 110.232 117.588 110.176 117.844 110.354L122.554 113.774C122.799 113.952 122.855 114.297 122.677 114.553C122.566 114.698 122.398 114.787 122.22 114.787Z" fill="white"/>
<path d="M67.9502 105.755C67.9502 105.755 67.8833 105.755 67.8499 105.755L60.5679 104.496C60.2673 104.441 60.0669 104.151 60.1114 103.85C60.1671 103.55 60.4454 103.349 60.7572 103.394L68.0393 104.652C68.3399 104.708 68.5403 104.997 68.4958 105.298C68.4512 105.565 68.2174 105.766 67.9502 105.766V105.755Z" fill="white"/>
<path d="M59.6765 123.674C59.3982 123.674 59.1643 123.463 59.1198 123.184L58.3292 116.758C58.2958 116.457 58.5074 116.179 58.808 116.134C59.1198 116.09 59.387 116.313 59.4315 116.624L60.2221 123.05C60.2555 123.351 60.044 123.63 59.7322 123.674C59.7099 123.674 59.6877 123.674 59.6654 123.674H59.6765Z" fill="white"/>
<path d="M42.2848 122.371C42.2848 122.371 42.1957 122.371 42.1512 122.36C41.8505 122.282 41.6724 121.981 41.7503 121.681L42.6077 118.251C42.6856 117.95 42.9862 117.772 43.2869 117.85C43.5875 117.928 43.7657 118.228 43.6878 118.529L42.8304 121.959C42.7636 122.215 42.5409 122.382 42.2959 122.382L42.2848 122.371Z" fill="white"/>
<path d="M153.118 162.175C153.051 162.175 152.985 162.175 152.918 162.142L146.07 159.569C145.78 159.458 145.636 159.146 145.747 158.856C145.858 158.567 146.181 158.422 146.46 158.533L153.307 161.106C153.597 161.217 153.742 161.529 153.63 161.819C153.541 162.042 153.33 162.175 153.107 162.175H153.118Z" fill="white"/>
<path d="M202.399 166.051C202.333 166.051 202.277 166.051 202.21 166.017C201.921 165.917 201.765 165.594 201.865 165.305L204.882 156.751C204.983 156.462 205.306 156.306 205.595 156.417C205.885 156.517 206.041 156.84 205.94 157.13L202.923 165.683C202.845 165.917 202.622 166.051 202.399 166.051Z" fill="white"/>
<path d="M174.943 186.209C174.642 186.209 174.386 185.964 174.386 185.652C174.386 185.34 174.631 185.095 174.943 185.095L183.037 185.017L183.082 185.574L183.049 186.131L174.954 186.209H174.943Z" fill="white"/>
<path d="M146.282 205.832C146.081 205.832 145.881 205.721 145.781 205.521L141.928 197.814C141.794 197.535 141.906 197.201 142.173 197.068C142.451 196.934 142.785 197.045 142.919 197.313L146.772 205.019C146.905 205.298 146.794 205.632 146.527 205.766C146.449 205.81 146.36 205.821 146.282 205.821V205.832Z" fill="white"/>
<path d="M113.323 184.861C113.123 184.861 112.933 184.75 112.833 184.561C112.688 184.293 112.789 183.948 113.067 183.803L120.338 179.95C120.616 179.805 120.95 179.905 121.095 180.184C121.24 180.451 121.14 180.796 120.861 180.941L113.59 184.795C113.512 184.839 113.423 184.861 113.334 184.861H113.323Z" fill="white"/>
<path d="M90.6424 211.824C90.5534 211.824 90.4754 211.802 90.3974 211.769L85.2644 209.196C84.986 209.062 84.8747 208.728 85.0194 208.45C85.1531 208.171 85.4871 208.06 85.7654 208.205L90.8985 210.777C91.1769 210.911 91.2883 211.245 91.1435 211.523C91.0433 211.713 90.854 211.835 90.6424 211.835V211.824Z" fill="white"/>
<path d="M84.2625 240.948C84.1734 240.948 84.0954 240.926 84.0175 240.892C83.7391 240.759 83.6278 240.424 83.7726 240.146L86.7678 234.154C86.9014 233.876 87.2354 233.764 87.5138 233.909C87.7922 234.043 87.9035 234.377 87.7587 234.655L84.7635 240.647C84.6633 240.837 84.474 240.959 84.2625 240.959V240.948Z" fill="white"/>
<path d="M73.3835 256.562C73.2833 256.562 73.172 256.529 73.0829 256.473L67.0924 252.608C66.8363 252.441 66.7584 252.096 66.9255 251.84C67.0925 251.584 67.4377 251.506 67.6937 251.673L73.6842 255.537C73.9403 255.704 74.0182 256.05 73.8512 256.306C73.7398 256.473 73.5617 256.562 73.3835 256.562Z" fill="white"/>
<path d="M105.195 240.079C104.906 240.079 104.661 239.845 104.639 239.556C104.616 239.244 104.85 238.988 105.162 238.965L112.433 238.542C112.733 238.509 113.001 238.754 113.023 239.066C113.045 239.377 112.811 239.634 112.5 239.656L105.229 240.079C105.229 240.079 105.206 240.079 105.195 240.079Z" fill="white"/>
<path d="M145.759 226.948C145.659 226.948 145.558 226.926 145.458 226.859L138.622 222.56C138.365 222.393 138.287 222.059 138.443 221.792C138.61 221.536 138.956 221.447 139.212 221.614L146.048 225.913C146.304 226.08 146.382 226.425 146.226 226.681C146.126 226.848 145.937 226.937 145.759 226.937V226.948Z" fill="white"/>
<path d="M158.685 250.348C158.619 250.348 158.541 250.336 158.474 250.303C158.184 250.192 158.051 249.858 158.173 249.579L161.169 242.307C161.291 242.017 161.614 241.883 161.892 242.006C162.182 242.117 162.315 242.451 162.193 242.73L159.198 250.002C159.109 250.214 158.897 250.348 158.685 250.348Z" fill="white"/>
<path d="M189.072 237.094C189.072 237.094 189.016 237.094 188.994 237.094L181.267 236.014C180.966 235.969 180.754 235.691 180.788 235.39C180.832 235.09 181.111 234.878 181.411 234.911L189.139 235.992C189.439 236.036 189.651 236.315 189.618 236.615C189.584 236.894 189.339 237.094 189.072 237.094Z" fill="white"/>
<path d="M180.521 213.55C180.354 213.55 180.199 213.484 180.087 213.339C179.898 213.094 179.931 212.749 180.176 212.559L186.601 207.425C186.846 207.236 187.191 207.269 187.38 207.514C187.57 207.759 187.536 208.104 187.291 208.294L180.867 213.428C180.766 213.506 180.644 213.55 180.521 213.55Z" fill="white"/>
<path d="M238.165 168.345C238.065 168.345 237.965 168.323 237.864 168.256L232.019 164.592C231.763 164.425 231.685 164.08 231.841 163.824C232.008 163.567 232.353 163.489 232.609 163.645L238.455 167.309C238.711 167.477 238.789 167.822 238.633 168.078C238.533 168.245 238.343 168.334 238.165 168.334V168.345Z" fill="white"/>
<path d="M255.847 156.306C255.591 156.306 255.357 156.117 255.301 155.849C255.246 155.549 255.435 155.259 255.747 155.192L262.583 153.867C262.884 153.811 263.174 154 263.24 154.312C263.296 154.613 263.107 154.903 262.795 154.969L255.958 156.295C255.958 156.295 255.891 156.295 255.847 156.295V156.306Z" fill="white"/>
<path d="M274.899 137.206C274.799 137.206 274.688 137.172 274.599 137.117L266.526 131.893C266.27 131.726 266.192 131.381 266.359 131.125C266.526 130.869 266.871 130.791 267.127 130.958L275.2 136.181C275.456 136.348 275.534 136.694 275.367 136.95C275.255 137.117 275.077 137.206 274.899 137.206Z" fill="white"/>
<path d="M253.597 123.084C253.419 123.084 253.252 123.006 253.14 122.85C252.962 122.594 253.029 122.249 253.274 122.071L259.298 117.838C259.554 117.66 259.899 117.727 260.077 117.972C260.255 118.217 260.188 118.574 259.943 118.752L253.92 122.984C253.819 123.051 253.708 123.084 253.597 123.084Z" fill="white"/>
<path d="M240.426 143.765C240.282 143.765 240.137 143.71 240.037 143.598L235.761 139.322C235.538 139.099 235.538 138.754 235.761 138.531C235.984 138.308 236.329 138.308 236.551 138.531L240.827 142.808C241.05 143.03 241.05 143.376 240.827 143.598C240.716 143.71 240.571 143.765 240.437 143.765H240.426Z" fill="white"/>
<path d="M244.667 106.456C244.445 106.456 244.244 106.323 244.155 106.111C244.044 105.822 244.177 105.499 244.456 105.387L250.858 102.77C251.137 102.659 251.471 102.792 251.582 103.071C251.693 103.36 251.56 103.683 251.281 103.795L244.879 106.412C244.812 106.445 244.734 106.456 244.667 106.456Z" fill="white"/>
<path d="M194.206 85.1288C194.15 85.1288 194.083 85.1288 194.027 85.0954C193.738 84.9952 193.582 84.6833 193.671 84.3938L195.386 79.2596C195.486 78.97 195.798 78.8141 196.087 78.9032C196.377 79.0034 196.533 79.3153 196.444 79.6048L194.729 84.739C194.651 84.9729 194.428 85.1177 194.206 85.1177V85.1288Z" fill="white"/>
</svg>
