<svg width="50" height="50" viewBox="0 0 50 50" fill="none" xmlns="http://www.w3.org/2000/svg">
<g clip-path="url(#clip0_120_1898)">
<path d="M35.6774 6.64791C35.278 8.43358 34.358 10.0607 33.0337 11.3235C31.7088 12.5868 30.0388 13.4286 28.2352 13.7422C25.9503 14.1414 25.9562 17.4157 28.2348 17.8108L28.2357 17.8109C30.0456 18.1269 31.7205 18.9747 33.0467 20.2462C34.373 21.5178 35.2905 23.1555 35.6823 24.9505L35.7499 25.2602C36.2357 27.4699 39.3745 27.4778 39.8752 25.2805C39.8753 25.2803 39.8754 25.28 39.8754 25.2798L39.9572 24.9169L39.9577 24.9149C40.3661 23.1268 41.2937 21.4992 42.6241 20.2366C43.9544 18.974 45.6282 18.1326 47.4351 17.818L35.6774 6.64791ZM35.6774 6.64791C35.6776 6.64707 35.6778 6.64623 35.678 6.64539L35.7285 6.42648L35.7304 6.41839L35.757 6.30863L35.8076 6.10015C36.4249 4.09055 39.3886 4.14247 39.8751 6.27196C39.8752 6.27247 39.8753 6.27298 39.8755 6.2735L39.9071 6.41439L39.9081 6.4184L39.9724 6.69697L39.973 6.69979C40.39 8.47534 41.3196 10.0892 42.6464 11.3406C43.9731 12.592 45.6383 13.4259 47.4351 13.7386C49.721 14.1371 49.7211 17.4194 47.4353 17.818L35.6774 6.64791ZM31.296 28.5585C30.0096 30.162 28.4456 31.5225 26.6778 32.5748H26.1282V33.3248V37.4998C26.1282 38.248 25.8309 38.9657 25.3018 39.4948C24.7727 40.0239 24.055 40.3212 23.3067 40.3212H12.5924C11.8441 40.3212 11.1265 40.0239 10.5974 39.4948C10.0683 38.9657 9.77101 38.248 9.77101 37.4998V33.3248V32.8921L9.39647 32.6755C7.26214 31.4412 5.41983 29.7602 3.99574 27.7475C2.57166 25.7348 1.59944 23.4381 1.1457 21.0147C0.691966 18.5913 0.767424 16.0984 1.36691 13.7069C1.9664 11.3153 3.07574 9.08164 4.61896 7.15879C6.16217 5.23595 8.10279 3.6694 10.3079 2.56645C12.5129 1.46351 14.9304 0.850238 17.3945 0.768648C19.8587 0.687058 22.3114 1.13908 24.5846 2.09374C26.7256 2.99289 28.6598 4.31792 30.2703 5.9867C30.0581 6.55257 29.7155 7.06271 29.2681 7.4745L29.776 8.02634L29.2681 7.4745C28.7217 7.97737 28.0421 8.31233 27.3105 8.43939L27.3101 8.43946C19.083 9.87285 19.0805 21.6835 27.3102 23.1136C28.0675 23.2456 28.7685 23.6 29.3237 24.1317C29.8787 24.6633 30.2629 25.348 30.4275 26.0986C30.4275 26.0989 30.4276 26.0992 30.4277 26.0995L30.4944 26.4086C30.4945 26.4091 30.4946 26.4096 30.4947 26.41C30.6542 27.1629 30.9245 27.8868 31.296 28.5585ZM9.77458 47.3212C9.77458 46.8097 9.97777 46.3192 10.3394 45.9575C10.7011 45.5958 11.1917 45.3926 11.7031 45.3926H24.2031C24.7146 45.3926 25.2052 45.5958 25.5669 45.9575C25.9285 46.3192 26.1317 46.8097 26.1317 47.3212C26.1317 47.8327 25.9285 48.3232 25.5669 48.6849C25.2052 49.0466 24.7146 49.2498 24.2031 49.2498H11.7031C11.1917 49.2498 10.7011 49.0466 10.3394 48.6849C9.97777 48.3232 9.77458 47.8327 9.77458 47.3212Z" fill="#934AF7" stroke="black" stroke-width="1.5"/>
</g>
<defs>
<clipPath id="clip0_120_1898">
<rect width="50" height="50" fill="white"/>
</clipPath>
</defs>
</svg>
