<svg width="50" height="50" viewBox="0 0 50 50" fill="none" xmlns="http://www.w3.org/2000/svg">
<path d="M20.429 8.9285C20.429 12.3211 17.6787 15.0714 14.2861 15.0714C10.8935 15.0714 8.14328 12.3211 8.14328 8.9285C8.14328 5.53589 10.8935 2.78564 14.2861 2.78564C17.6787 2.78564 20.429 5.53589 20.429 8.9285ZM2.78613 30.3571C2.78613 24.1059 7.77375 19.0197 13.9866 18.8609C12.9718 20.6779 12.3933 22.7722 12.3933 24.9999C12.3933 27.2293 12.9726 29.3249 13.9887 31.1428H3.57185C3.13791 31.1428 2.78613 30.791 2.78613 30.3571ZM37.6076 24.9999C37.6076 22.7722 37.0291 20.6779 36.0143 18.8609C42.2271 19.0198 47.2147 24.106 47.2147 30.3571C47.2147 30.791 46.8628 31.1428 46.429 31.1428H36.0121C37.0282 29.3249 37.6076 27.2293 37.6076 24.9999ZM41.8576 8.9285C41.8576 12.3211 39.1074 15.0714 35.7147 15.0714C32.3221 15.0714 29.5718 12.3211 29.5718 8.9285C29.5718 5.53589 32.3221 2.78564 35.7147 2.78564C39.1074 2.78564 41.8576 5.53588 41.8576 8.9285ZM31.1433 24.9999C31.1433 28.3925 28.393 31.1428 25.0004 31.1428C21.6078 31.1428 18.8576 28.3925 18.8576 24.9999C18.8576 21.6073 21.6078 18.8571 25.0004 18.8571C28.393 18.8571 31.1433 21.6073 31.1433 24.9999ZM13.5004 46.4285C13.5004 40.0772 18.6491 34.9285 25.0004 34.9285C31.3517 34.9285 36.5004 40.0772 36.5004 46.4285C36.5004 46.8623 36.1485 47.2142 35.7147 47.2142H14.2861C13.8523 47.2142 13.5004 46.8623 13.5004 46.4285Z" fill="#934AF7" stroke="#101010" stroke-width="2"/>
</svg>
