<svg width="50" height="50" viewBox="0 0 50 50" fill="none" xmlns="http://www.w3.org/2000/svg">
<g clip-path="url(#clip0_120_1890)">
<path d="M33.1302 8.36561C38.1756 8.77438 41.7687 12.8944 41.9885 17.5631M33.1302 8.36561L33.1913 7.6181C38.6344 8.05937 42.5012 12.5049 42.7377 17.5278L42.7377 17.5279C43.0426 24.0226 43.1349 30.2311 43.0144 36.5549C43.6681 36.5153 44.2942 36.4708 44.8837 36.4228C45.9603 36.3283 46.9646 35.8463 47.7085 35.0683C48.4527 34.29 48.8854 33.2689 48.9262 32.1968L48.9265 32.1899H48.9265C49.3578 23.0769 49.3578 14.545 48.9265 5.43205L48.9261 5.42415L48.9262 5.42415C48.8867 4.35235 48.4551 3.33116 47.7114 2.55284C46.9681 1.77489 45.9641 1.29317 44.888 1.19916C37.53 0.600278 24.6543 0.600281 17.3 1.19916C16.2238 1.29316 15.2198 1.77488 14.4765 2.55283C13.7328 3.33116 13.3012 4.35235 13.2617 5.42415L13.2614 5.43408L13.2613 5.43407C13.2316 6.02697 13.2054 6.61852 13.1813 7.2089C20.0661 7.05183 27.9221 7.18732 33.1907 7.61805L41.9885 17.5631M33.1302 8.36561C27.8839 7.93667 20.0316 7.80139 13.1518 7.95977L33.1302 8.36561ZM41.9885 17.5631C42.2936 24.0615 42.3853 30.2712 42.2635 36.5975L41.9885 17.5631ZM2.28698 14.9318C3.0229 14.161 4.01457 13.6807 5.07904 13.5799H5.07907L5.10945 13.5774C12.467 12.9784 25.3407 12.9783 32.6993 13.5772C33.7753 13.6719 34.7789 14.1539 35.5221 14.9317C36.2658 15.71 36.6977 16.731 36.7378 17.8027L36.7381 17.8101C37.1695 26.923 37.1695 35.455 36.7381 44.568H36.7381L36.7378 44.5759C36.6984 45.6472 36.2672 46.668 35.5242 47.4463C34.7815 48.2241 33.7783 48.7062 32.7027 48.8009C25.341 49.3997 12.4692 49.3997 5.11145 48.8008C4.03532 48.7068 3.03143 48.2251 2.28813 47.4472C1.54445 46.6688 1.11279 45.6476 1.07337 44.5758L1.07342 44.5758L1.073 44.5672C0.642334 35.6536 0.642334 26.7245 1.073 17.8109L1.07305 17.8109L1.07337 17.8022C1.1127 16.7309 1.54393 15.7101 2.28698 14.9318ZM29.4497 46.0229L30.2257 45.9828L30.1581 45.2087C29.9082 42.3451 28.4443 39.7841 26.1902 37.9508L26.1901 37.9508C24.1368 36.2812 21.5671 35.3695 18.9164 35.3695C16.2657 35.3695 13.696 36.2812 11.6427 37.9508L11.6423 37.9511C9.40142 39.7753 7.91337 42.3468 7.6709 45.2107L7.60552 45.9829L8.3795 46.023C14.6472 46.347 23.1855 46.347 29.4497 46.0229ZM18.9164 34.008C21.0768 34.008 22.8697 33.4019 24.122 32.1554C25.3748 30.9083 25.984 29.1225 25.984 26.9722C25.984 24.8215 25.3738 23.0358 24.1205 21.7889C22.8679 20.5425 21.0752 19.9363 18.9164 19.9363C16.7576 19.9363 14.9649 20.5425 13.7122 21.7889C12.459 23.0358 11.8487 24.8215 11.8487 26.9722C11.8487 29.1228 12.459 30.9086 13.7122 32.1555C14.9649 33.4019 16.7576 34.008 18.9164 34.008Z" fill="#934AF7" stroke="black" stroke-width="1.5"/>
</g>
<defs>
<clipPath id="clip0_120_1890">
<rect width="50" height="50" fill="white"/>
</clipPath>
</defs>
</svg>
