<svg width="37" height="37" viewBox="0 0 37 37" fill="none" xmlns="http://www.w3.org/2000/svg">
<path d="M29.6641 5.58267L29.6585 5.141C29.6531 4.70863 29.6418 4.27635 29.6245 3.84429M29.6641 5.58267L30.1241 3.82432M29.6641 5.58267L30.1031 5.63164L29.6641 5.58267ZM29.6245 3.84429L30.1241 3.82432M29.6245 3.84429C29.6245 3.84434 29.6245 3.8444 29.6245 3.84446L30.1241 3.82432M29.6245 3.84429C29.5678 2.43969 28.6216 1.20937 27.0963 1.11786M30.1241 3.82432C30.0593 2.21632 28.9577 0.728322 27.1257 0.618722M27.0963 1.11786C27.0965 1.11787 27.0967 1.11788 27.0969 1.11789L27.1257 0.618722M27.0963 1.11786C26.6526 1.09229 26.2082 1.08004 25.7637 1.08112L25.7625 1.08112C25.2453 1.08112 24.8054 1.09451 24.4311 1.11776L24.4302 1.11782C22.9042 1.20978 21.9572 2.43986 21.9005 3.84415M27.0963 1.11786C27.0962 1.11785 27.096 1.11784 27.0958 1.11783L27.1257 0.618722M27.1257 0.618722L21.9005 3.84415M21.9005 3.84415C21.8904 4.09829 21.8825 4.35252 21.8768 4.6068M21.9005 3.84415L21.8768 4.6068M21.8655 5.10574L21.3666 5.09542C19.4977 5.05676 17.6281 5.05676 15.7592 5.09542L15.261 5.10572L15.249 4.60753C15.2429 4.35311 15.2348 4.09874 15.2245 3.84445C15.1679 2.43988 14.2217 1.2094 12.6956 1.11786C12.2521 1.09231 11.8079 1.08005 11.3637 1.08112L11.3625 1.08112C10.8453 1.08112 10.4054 1.09451 10.0302 1.11776L10.0294 1.11782C8.50344 1.20977 7.5571 2.43985 7.50049 3.84446L7.50047 3.84501C7.48469 4.22621 7.4728 4.66069 7.46646 5.14132L7.46063 5.58307L7.02152 5.63168C6.58417 5.68011 6.14738 5.73352 5.71124 5.7919L5.71088 5.79195C3.64235 6.06732 2.05355 7.63298 1.75664 9.70165L21.8655 5.10574ZM21.8655 5.10574L21.8768 4.6068M21.8655 5.10574L21.8768 4.6068M1.75664 31.4318L1.75665 31.4319C2.05276 33.5002 3.64215 35.0662 5.71183 35.3423C8.24753 35.6801 12.4782 36.0667 18.5625 36.0667C24.6467 36.0667 28.8774 35.6801 31.4139 35.3423C33.4827 35.0662 35.0715 33.5012 35.3684 31.4318C35.3684 31.4318 35.3684 31.4317 35.3684 31.4317L35.8633 31.5027L1.75664 31.4318ZM1.75664 31.4318C1.42626 29.1262 1.0625 25.4731 1.0625 20.5667C1.0625 15.6604 1.42625 12.0073 1.75663 9.70175L1.75664 31.4318ZM15.4776 17.8818C15.0837 18.2756 14.8625 18.8098 14.8625 19.3667C14.8625 19.9237 15.0837 20.4578 15.4776 20.8516C15.8714 21.2455 16.4055 21.4667 16.9625 21.4667H20.1625C20.7195 21.4667 21.2536 21.2455 21.6474 20.8516C22.0413 20.4578 22.2625 19.9237 22.2625 19.3667C22.2625 18.8098 22.0413 18.2756 21.6474 17.8818C21.2536 17.488 20.7195 17.2667 20.1625 17.2667H16.9625C16.4055 17.2667 15.8714 17.488 15.4776 17.8818ZM25.7625 17.2667C25.2055 17.2667 24.6714 17.488 24.2776 17.8818C23.8837 18.2756 23.6625 18.8098 23.6625 19.3667C23.6625 19.9237 23.8837 20.4578 24.2776 20.8516C24.6714 21.2455 25.2055 21.4667 25.7625 21.4667H28.9625C29.5195 21.4667 30.0536 21.2455 30.4474 20.8516C30.8413 20.4578 31.0625 19.9237 31.0625 19.3667C31.0625 18.8098 30.8413 18.2756 30.4474 17.8818C30.0536 17.488 29.5195 17.2667 28.9625 17.2667H25.7625ZM13.4625 19.3667C13.4625 18.8098 13.2413 18.2756 12.8474 17.8818C12.4536 17.488 11.9195 17.2667 11.3625 17.2667H8.1625C7.60554 17.2667 7.0714 17.488 6.67758 17.8818C6.28375 18.2756 6.0625 18.8098 6.0625 19.3667C6.0625 19.9237 6.28375 20.4578 6.67758 20.8516C7.0714 21.2455 7.60555 21.4667 8.1625 21.4667H11.3625C11.9195 21.4667 12.4536 21.2455 12.8474 20.8516C13.2413 20.4578 13.4625 19.9237 13.4625 19.3667ZM16.9625 25.2667C16.4055 25.2667 15.8714 25.488 15.4776 25.8818C15.0837 26.2756 14.8625 26.8098 14.8625 27.3667C14.8625 27.9237 15.0837 28.4578 15.4776 28.8516C15.8714 29.2455 16.4055 29.4667 16.9625 29.4667H20.1625C20.7195 29.4667 21.2536 29.2455 21.6474 28.8516C22.0413 28.4578 22.2625 27.9237 22.2625 27.3667C22.2625 26.8098 22.0413 26.2756 21.6474 25.8818C21.2536 25.488 20.7195 25.2667 20.1625 25.2667H16.9625ZM24.2776 25.8818C23.8837 26.2756 23.6625 26.8098 23.6625 27.3667C23.6625 27.9237 23.8837 28.4578 24.2776 28.8516C24.6714 29.2455 25.2055 29.4667 25.7625 29.4667H28.9625C29.5195 29.4667 30.0536 29.2455 30.4474 28.8516C30.8413 28.4578 31.0625 27.9237 31.0625 27.3667C31.0625 26.8098 30.8413 26.2756 30.4474 25.8818C30.0536 25.488 29.5195 25.2667 28.9625 25.2667H25.7625C25.2055 25.2667 24.6714 25.488 24.2776 25.8818ZM12.8474 25.8818C12.4536 25.488 11.9195 25.2667 11.3625 25.2667H8.1625C7.60555 25.2667 7.0714 25.488 6.67758 25.8818C6.28375 26.2756 6.0625 26.8098 6.0625 27.3667C6.0625 27.9237 6.28375 28.4578 6.67758 28.8516C7.0714 29.2455 7.60555 29.4667 8.1625 29.4667H11.3625C11.9195 29.4667 12.4536 29.2455 12.8474 28.8516C13.2413 28.4578 13.4625 27.9237 13.4625 27.3667C13.4625 26.8098 13.2413 26.2756 12.8474 25.8818Z" fill="#FBB800" stroke="#101010"/>
</svg>
